<?xml version="1.0" encoding="iso-8859-1"?>
<!-- Generator: Adobe Illustrator 17.1.0, SVG Export Plug-In . SVG Version: 6.00 Build 0)  -->
<!DOCTYPE svg PUBLIC "-//W3C//DTD SVG 1.1//EN" "http://www.w3.org/Graphics/SVG/1.1/DTD/svg11.dtd">
<svg version="1.1" id="Layer_1" xmlns="http://www.w3.org/2000/svg" xmlns:xlink="http://www.w3.org/1999/xlink" x="0px" y="0px"
	 viewBox="0 0 128 118" style="enable-background:new 0 0 128 118;" xml:space="preserve">
<path id="basket" fill="#FFFFFF" d="M124,30H83V19C83,8.523,74.477,0,64,0S45,8.523,45,19v11H4c-1.232,0-2.395,0.567-3.153,1.539
	c-0.758,0.971-1.026,2.237-0.728,3.432l20,80c0.445,1.781,2.045,3.03,3.88,3.03h80c1.835,0,3.436-1.249,3.88-3.03l20-80
	c0.299-1.195,0.03-2.461-0.728-3.432C126.395,30.567,125.232,30,124,30z M53,19c0-6.065,4.935-11,11-11s11,4.935,11,11v11H53V19z
	 M100.877,110H27.123l-18-72h109.754L100.877,110z M42.96,88.434c0.312,2.187-1.208,4.213-3.394,4.526
	c-0.192,0.027-0.383,0.041-0.571,0.041c-1.958,0-3.67-1.44-3.955-3.435l-5-35c-0.312-2.187,1.208-4.213,3.394-4.526
	c2.191-0.313,4.213,1.208,4.526,3.394L42.96,88.434z M85.04,88.434l5-35c0.313-2.187,2.332-3.707,4.526-3.394
	c2.186,0.313,3.706,2.339,3.394,4.526l-5,35c-0.285,1.995-1.997,3.435-3.955,3.435c-0.188,0-0.378-0.013-0.571-0.041
	C86.248,92.647,84.728,90.621,85.04,88.434z M68,54v35c0,2.209-1.791,4-4,4s-4-1.791-4-4V54c0-2.209,1.791-4,4-4S68,51.791,68,54z"
	/>
</svg>
