<?xml version="1.0" encoding="iso-8859-1"?>
<!-- Generator: Adobe Illustrator 17.1.0, SVG Export Plug-In . SVG Version: 6.00 Build 0)  -->
<!DOCTYPE svg PUBLIC "-//W3C//DTD SVG 1.1//EN" "http://www.w3.org/Graphics/SVG/1.1/DTD/svg11.dtd">
<svg version="1.1" id="Layer_1" xmlns="http://www.w3.org/2000/svg" xmlns:xlink="http://www.w3.org/1999/xlink" x="0px" y="0px"
	 viewBox="0 0 128 118" style="enable-background:new 0 0 128 118;" xml:space="preserve">
<path id="smoothie" fill="#FFFFFF" d="M115.867,5.718l-27.48,13.74c-0.708,0.355-1.284,0.929-1.639,1.638l-3.568,7.135H70.566
	C68.745,12.779,55.578,0.75,39.644,0.75C22.471,0.75,8.5,14.722,8.5,31.895c0,15.933,12.028,29.101,27.48,30.922v5.718
	c0,1.062,0.461,2.072,1.263,2.769l2.351,2.038c1.758,1.78,3.133,3.849,4.088,6.15c0.968,2.333,1.458,4.811,1.458,7.363v27.48
	c0,2.023,1.641,3.664,3.664,3.664h36.641c2.023,0,3.664-1.641,3.664-3.664v-27.48c0-2.553,0.49-5.03,1.457-7.362
	c0.955-2.303,2.331-4.372,4.089-6.152l2.351-2.038c0.802-0.696,1.263-1.706,1.263-2.769l0.001-36.64
	c0-0.972-0.386-1.904-1.073-2.591c-0.687-0.687-1.619-1.073-2.591-1.073h-3.232l1.382-2.765l26.388-13.194
	c1.81-0.905,2.543-3.106,1.639-4.916C119.877,5.546,117.674,4.813,115.867,5.718z M43.308,46.552V35.56h36.208L74.02,46.552H43.308z
	 M25.604,51.117l2.89-2.89c1.431-1.431,1.431-3.751,0-5.182c-1.429-1.43-3.752-1.43-5.181,0l-2.891,2.891
	c-2.201-3.004-3.717-6.539-4.312-10.376h5.213c2.023,0,3.664-1.641,3.664-3.664s-1.641-3.664-3.664-3.664H16.11
	c0.595-3.837,2.111-7.372,4.312-10.376l2.891,2.891c0.715,0.715,1.653,1.073,2.591,1.073s1.876-0.358,2.591-1.073
	c1.431-1.431,1.431-3.751,0-5.182l-2.891-2.891c3.005-2.201,6.539-3.718,10.377-4.313v5.214c0,2.023,1.641,3.664,3.664,3.664
	c2.023,0,3.664-1.641,3.664-3.664V8.361c3.838,0.595,7.372,2.112,10.377,4.313l-2.891,2.891c-1.431,1.431-1.431,3.751,0,5.182
	c0.715,0.715,1.653,1.073,2.591,1.073s1.876-0.358,2.591-1.073l2.891-2.891c2.201,3.004,3.717,6.54,4.312,10.376H39.644
	c-2.023,0-3.664,1.641-3.664,3.664v23.534C32.143,54.834,28.609,53.318,25.604,51.117z M89.751,67.894
	c-0.065,0.057-0.129,0.116-0.19,0.177c-2.482,2.483-4.422,5.38-5.764,8.614c-1.338,3.228-2.016,6.649-2.016,10.17v23.816H52.468
	V86.855c0-3.521-0.678-6.942-2.017-10.171c-1.342-3.232-3.281-6.13-5.764-8.613c-0.061-0.061-0.124-0.12-0.19-0.177l-1.19-1.031
	V53.88h32.966c0.003,0,0.005,0.001,0.008,0.001c0.004,0,0.009-0.001,0.013-0.001h14.646v12.983L89.751,67.894z M90.942,35.56v10.992
	h-8.728L87.71,35.56H90.942z"/>
</svg>
