<?xml version="1.0" encoding="iso-8859-1"?>
<!-- Generator: Adobe Illustrator 17.1.0, SVG Export Plug-In . SVG Version: 6.00 Build 0)  -->
<!DOCTYPE svg PUBLIC "-//W3C//DTD SVG 1.1//EN" "http://www.w3.org/Graphics/SVG/1.1/DTD/svg11.dtd">
<svg version="1.1" id="Layer_1" xmlns="http://www.w3.org/2000/svg" xmlns:xlink="http://www.w3.org/1999/xlink" x="0px" y="0px"
	 viewBox="0 0 128 118" style="enable-background:new 0 0 128 118;" xml:space="preserve">
<path id="bread" fill="#FFFFFF" d="M9.237,114.536c0,2.04,1.654,3.695,3.695,3.695h46.184c2.04,0,3.695-1.654,3.695-3.695v-19.12
	c8.421,8.006,19.563,17.587,27.616,20.781c3.254,1.349,6.704,2.034,10.254,2.034c3.547,0,6.996-0.684,10.254-2.034
	c3.261-1.353,6.183-3.308,8.687-5.811c2.503-2.503,4.459-5.425,5.812-8.687c1.348-3.253,2.032-6.702,2.033-10.254
	c0-3.549-0.685-6.999-2.013-10.202c-7.84-19.769-54.506-71.256-74.558-79.209C47.642,0.684,44.192,0,40.642,0
	c-3.547,0-6.996,0.684-10.254,2.034c-3.262,1.353-6.184,3.308-8.687,5.812c-2.505,2.505-4.46,5.428-5.812,8.687
	c-1.349,3.255-2.033,6.705-2.033,10.253c0,3.549,0.685,6.999,2.013,10.202c1.843,4.648,5.571,10.472,9.267,15.657
	C18.293,53.31,12.313,54.6,7.976,56.406c-1.576,0.656-2.985,1.599-4.188,2.803c-1.21,1.21-2.153,2.62-2.805,4.194
	C0.33,64.976,0,66.641,0,68.352c0,1.711,0.33,3.377,0.982,4.951c0.653,1.575,1.598,2.986,2.806,4.193
	c1.208,1.208,2.619,2.152,4.193,2.805c0.412,0.171,0.832,0.32,1.256,0.447V114.536z M22.716,34.211
	c-0.976-2.354-1.471-4.852-1.471-7.425s0.494-5.07,1.469-7.423c0.979-2.359,2.396-4.476,4.213-6.293
	c1.813-1.814,3.93-3.231,6.291-4.21c2.356-0.977,4.854-1.471,7.425-1.471c2.573,0,5.071,0.495,7.477,1.491
	c4.312,1.71,10.206,5.901,16.771,11.525l-8.387,8.387c-1.443,1.443-1.443,3.782,0,5.225c0.721,0.721,1.667,1.082,2.612,1.082
	c0.945,0,1.892-0.361,2.612-1.082l8.689-8.689c4.352,4.014,8.872,8.489,13.333,13.165l-8.773,8.773
	c-1.443,1.443-1.443,3.782,0,5.225c0.721,0.721,1.667,1.082,2.612,1.082s1.892-0.361,2.612-1.082l8.596-8.596
	c4.322,4.723,8.493,9.538,12.301,14.196l-7.648,7.649c-1.443,1.443-1.443,3.782,0,5.225c0.721,0.721,1.667,1.082,2.612,1.082
	s1.892-0.361,2.612-1.082l7.054-7.053c6.231,8.072,10.961,15.274,12.878,20.108c0.976,2.354,1.471,4.852,1.471,7.424
	c-0.001,2.575-0.495,5.073-1.469,7.425c-0.98,2.361-2.397,4.478-4.211,6.292c-1.816,1.815-3.933,3.232-6.293,4.211
	c-2.356,0.977-4.854,1.471-7.425,1.471c-2.573,0-5.071-0.495-7.477-1.491c-6.479-2.57-17.514-11.381-30.394-24.252v-4.35
	c0.425-0.127,0.843-0.276,1.257-0.447c1.573-0.653,2.984-1.596,4.191-2.803c1.21-1.209,2.154-2.62,2.807-4.196
	c0.652-1.573,0.982-3.239,0.982-4.95c0-1.711-0.33-3.376-0.982-4.95c-0.652-1.572-1.596-2.983-2.805-4.193
	c-1.203-1.204-2.612-2.147-4.188-2.803c-6.521-2.716-16.743-4.274-28.048-4.274c-0.703,0-1.401,0.006-2.095,0.018
	C28.318,44.682,24.365,38.369,22.716,34.211z M9.012,72.27c-0.52-0.519-0.925-1.123-1.203-1.795
	c-0.278-0.672-0.419-1.386-0.419-2.122c0-0.735,0.142-1.449,0.419-2.12c0.279-0.673,0.685-1.278,1.205-1.8
	c0.517-0.517,1.123-0.922,1.803-1.205c4.875-2.031,12.699-3.345,21.421-3.642c0.005,0,0.012,0,0.017,0
	c1.246-0.042,2.513-0.064,3.77-0.064c10.213,0,19.634,1.385,25.204,3.705c0.68,0.283,1.286,0.689,1.803,1.205
	c0.52,0.521,0.926,1.127,1.205,1.798c0.278,0.672,0.419,1.386,0.419,2.121c0,0.736-0.142,1.45-0.419,2.121
	c-0.279,0.673-0.684,1.278-1.204,1.798c-0.52,0.52-1.125,0.925-1.799,1.205c-0.67,0.278-1.383,0.419-2.12,0.419
	c-2.04,0-3.695,1.654-3.695,3.695v9.035v24.217H16.626V77.589c0-2.04-1.654-3.695-3.695-3.695c-0.737,0-1.45-0.141-2.119-0.419
	C10.138,73.196,9.533,72.791,9.012,72.27z"/>
</svg>
