<?xml version="1.0" encoding="iso-8859-1"?>
<!-- Generator: Adobe Illustrator 17.1.0, SVG Export Plug-In . SVG Version: 6.00 Build 0)  -->
<!DOCTYPE svg PUBLIC "-//W3C//DTD SVG 1.1//EN" "http://www.w3.org/Graphics/SVG/1.1/DTD/svg11.dtd">
<svg version="1.1" id="Layer_1" xmlns="http://www.w3.org/2000/svg" xmlns:xlink="http://www.w3.org/1999/xlink" x="0px" y="0px"
	 viewBox="0 0 128 118" style="enable-background:new 0 0 128 118;" xml:space="preserve">
<path id="grape" fill="#FFFFFF" d="M19.349,63.603c0,8.413,5.964,15.455,13.885,17.132c-0.033,0.434-0.057,0.87-0.057,1.305
	c0,8.413,5.964,15.455,13.885,17.132c-0.033,0.434-0.057,0.87-0.057,1.305c0,9.658,7.857,17.516,17.516,17.516
	s17.516-7.857,17.516-17.516c0-0.436-0.024-0.871-0.057-1.305c7.921-1.677,13.885-8.719,13.885-17.132
	c0-0.436-0.024-0.871-0.057-1.305c7.921-1.677,13.885-8.719,13.885-17.132c0-8.416-5.969-15.461-13.894-17.134
	c0.032-0.432,0.066-0.863,0.066-1.303c0-9.658-7.857-17.516-17.516-17.516c-3.78,0-7.275,1.216-10.141,3.261V17.51
	c0-1.347,0.258-2.652,0.769-3.882c0.511-1.233,1.251-2.339,2.201-3.289c0.949-0.949,2.057-1.69,3.288-2.202
	c2.459-1.018,5.306-1.019,7.762,0c1.235,0.513,2.342,1.254,3.29,2.202c0.759,0.758,1.384,1.617,1.866,2.56
	c-0.481,0.944-1.106,1.803-1.868,2.564c-0.948,0.949-2.053,1.689-3.286,2.2c-1.882,0.779-2.775,2.936-1.995,4.818
	c0.779,1.882,2.938,2.775,4.818,1.995c2.134-0.884,4.045-2.163,5.68-3.799c1.639-1.638,2.917-3.55,3.8-5.682
	c0.184-0.445,0.279-0.921,0.28-1.403l0.003-1.368c0.001-0.487-0.094-0.97-0.281-1.42c-0.885-2.132-2.164-4.043-3.8-5.68
	c-1.634-1.634-3.544-2.912-5.679-3.799c-4.26-1.765-9.149-1.766-13.414,0C69.51,2.21,67.6,3.488,65.963,5.124
	c-1.638,1.638-2.916,3.55-3.798,5.679c-0.884,2.129-1.331,4.385-1.331,6.707v13.401c-2.866-2.045-6.36-3.261-10.141-3.261
	c-9.658,0-17.516,7.857-17.516,17.516c0,0.44,0.034,0.871,0.066,1.303C25.318,48.142,19.349,55.187,19.349,63.603z M40.552,82.041
	c0-0.448,0.032-0.897,0.094-1.344c1.399-0.31,2.73-0.793,3.982-1.416c0.122-0.06,0.246-0.113,0.366-0.176
	c0.275-0.145,0.541-0.305,0.807-0.465c0.205-0.122,0.411-0.241,0.61-0.371c0.221-0.144,0.434-0.297,0.647-0.451
	c0.231-0.165,0.459-0.333,0.682-0.51c0.187-0.149,0.369-0.302,0.55-0.459c0.229-0.198,0.453-0.401,0.672-0.61
	c0.169-0.162,0.335-0.325,0.497-0.493c0.205-0.213,0.403-0.434,0.598-0.658c0.164-0.188,0.327-0.375,0.483-0.569
	c0.05-0.062,0.105-0.118,0.154-0.181c0.049,0.063,0.104,0.119,0.154,0.181c0.156,0.195,0.319,0.382,0.483,0.569
	c0.195,0.224,0.393,0.444,0.598,0.658c0.162,0.168,0.328,0.331,0.497,0.493c0.219,0.209,0.442,0.413,0.672,0.61
	c0.181,0.156,0.363,0.31,0.55,0.459c0.223,0.176,0.451,0.344,0.682,0.51c0.213,0.154,0.426,0.307,0.647,0.451
	c0.199,0.13,0.405,0.249,0.61,0.371c0.267,0.159,0.532,0.319,0.807,0.465c0.12,0.063,0.244,0.116,0.366,0.176
	c1.252,0.623,2.583,1.106,3.982,1.416c0.062,0.447,0.094,0.896,0.094,1.344c0,1.19-0.217,2.328-0.595,3.39
	c-0.002,0.006-0.006,0.013-0.009,0.019c-0.253,0.708-0.58,1.374-0.97,1.992c-0.008,0.012-0.014,0.025-0.022,0.036
	c-0.112,0.177-0.232,0.348-0.354,0.516c-0.046,0.063-0.092,0.124-0.139,0.186c-0.117,0.153-0.235,0.305-0.36,0.45
	c-0.047,0.055-0.098,0.107-0.146,0.161c-0.235,0.262-0.483,0.511-0.742,0.747c-0.067,0.06-0.131,0.122-0.199,0.181
	c-0.14,0.12-0.283,0.234-0.429,0.346c-0.068,0.053-0.137,0.104-0.207,0.155c-1.534,1.119-3.383,1.81-5.366,1.926
	c-0.019,0.001-0.037,0.006-0.055,0.007c-0.183,0.01-0.363,0.028-0.548,0.028C45.101,92.181,40.552,87.632,40.552,82.041z
	 M58.821,60.668c0.275-0.145,0.541-0.305,0.807-0.465c0.205-0.122,0.411-0.241,0.61-0.371c0.221-0.144,0.434-0.297,0.647-0.451
	c0.231-0.165,0.459-0.333,0.682-0.51c0.187-0.149,0.369-0.302,0.55-0.459c0.229-0.198,0.453-0.401,0.672-0.61
	c0.169-0.162,0.335-0.324,0.497-0.493c0.205-0.213,0.403-0.434,0.598-0.658c0.164-0.188,0.327-0.375,0.483-0.569
	c0.05-0.062,0.105-0.118,0.154-0.181c0.049,0.063,0.104,0.119,0.154,0.181c0.156,0.195,0.319,0.382,0.483,0.569
	c0.195,0.224,0.393,0.444,0.598,0.658c0.162,0.168,0.328,0.331,0.497,0.493c0.219,0.209,0.442,0.413,0.672,0.61
	c0.181,0.156,0.363,0.31,0.55,0.459c0.223,0.176,0.451,0.344,0.682,0.51c0.213,0.154,0.426,0.307,0.647,0.451
	c0.199,0.13,0.405,0.249,0.61,0.371c0.267,0.159,0.532,0.319,0.807,0.465c0.12,0.063,0.244,0.116,0.366,0.176
	c1.252,0.623,2.583,1.106,3.982,1.416c0.062,0.447,0.094,0.896,0.094,1.344c0,1.19-0.217,2.328-0.595,3.39
	c-0.002,0.006-0.006,0.013-0.009,0.019c-0.253,0.708-0.58,1.374-0.97,1.992c-0.008,0.012-0.014,0.025-0.022,0.036
	c-0.112,0.177-0.232,0.348-0.354,0.516c-0.046,0.063-0.092,0.124-0.139,0.186c-0.117,0.153-0.235,0.305-0.36,0.45
	c-0.047,0.055-0.098,0.107-0.146,0.161c-0.235,0.262-0.483,0.511-0.742,0.747c-0.067,0.06-0.131,0.122-0.199,0.181
	c-0.14,0.12-0.283,0.234-0.429,0.346c-0.068,0.053-0.137,0.104-0.207,0.155c-1.534,1.119-3.383,1.81-5.366,1.926
	c-0.019,0.001-0.037,0.006-0.055,0.007c-0.183,0.01-0.363,0.028-0.548,0.028s-0.366-0.018-0.548-0.028
	c-0.018-0.001-0.036-0.006-0.055-0.007c-1.982-0.116-3.831-0.807-5.366-1.926c-0.07-0.051-0.139-0.103-0.207-0.155
	c-0.146-0.112-0.289-0.226-0.429-0.346c-0.068-0.059-0.133-0.121-0.199-0.181c-0.259-0.236-0.507-0.484-0.742-0.747
	c-0.048-0.054-0.099-0.106-0.146-0.161c-0.125-0.145-0.243-0.297-0.36-0.45c-0.047-0.062-0.094-0.123-0.139-0.186
	c-0.122-0.168-0.242-0.339-0.354-0.516c-0.008-0.012-0.014-0.024-0.022-0.036c-0.389-0.618-0.716-1.284-0.97-1.992
	c-0.002-0.007-0.006-0.013-0.009-0.019c-0.378-1.062-0.595-2.199-0.595-3.39c0-0.448,0.032-0.897,0.094-1.344
	c1.399-0.31,2.73-0.793,3.982-1.416C58.577,60.784,58.701,60.73,58.821,60.668z M64.521,110.619
	c-5.592,0-10.141-4.549-10.141-10.141c0-0.448,0.032-0.897,0.094-1.344c1.399-0.31,2.73-0.793,3.982-1.416
	c0.122-0.06,0.246-0.113,0.366-0.176c0.275-0.145,0.541-0.305,0.807-0.465c0.205-0.122,0.411-0.241,0.61-0.371
	c0.221-0.144,0.434-0.297,0.647-0.451c0.231-0.165,0.459-0.333,0.682-0.51c0.187-0.149,0.369-0.302,0.55-0.459
	c0.229-0.198,0.453-0.401,0.672-0.61c0.169-0.162,0.335-0.325,0.497-0.493c0.205-0.213,0.403-0.434,0.598-0.658
	c0.164-0.188,0.327-0.375,0.483-0.569c0.05-0.062,0.105-0.118,0.154-0.181c0.049,0.063,0.104,0.119,0.154,0.181
	c0.156,0.195,0.319,0.382,0.483,0.569c0.195,0.224,0.393,0.444,0.598,0.658c0.162,0.168,0.328,0.331,0.497,0.493
	c0.219,0.209,0.442,0.413,0.672,0.61c0.181,0.156,0.363,0.31,0.55,0.459c0.223,0.176,0.451,0.344,0.682,0.51
	c0.213,0.154,0.426,0.307,0.647,0.451c0.199,0.13,0.405,0.249,0.61,0.371c0.267,0.159,0.532,0.319,0.807,0.465
	c0.12,0.063,0.244,0.116,0.366,0.176c1.252,0.623,2.583,1.106,3.982,1.416c0.062,0.447,0.094,0.896,0.094,1.344
	C74.661,106.07,70.112,110.619,64.521,110.619z M78.349,92.181c-0.185,0-0.366-0.018-0.548-0.028
	c-0.018-0.001-0.036-0.006-0.055-0.007c-1.982-0.116-3.831-0.807-5.366-1.926c-0.07-0.051-0.139-0.103-0.207-0.155
	c-0.146-0.112-0.289-0.226-0.429-0.346c-0.068-0.059-0.133-0.121-0.199-0.181c-0.259-0.236-0.507-0.484-0.742-0.747
	c-0.048-0.054-0.099-0.106-0.146-0.161c-0.125-0.145-0.243-0.297-0.36-0.45c-0.047-0.062-0.094-0.123-0.139-0.186
	c-0.122-0.168-0.242-0.339-0.354-0.516c-0.008-0.012-0.014-0.024-0.022-0.036c-0.389-0.618-0.716-1.284-0.97-1.992
	c-0.002-0.007-0.006-0.013-0.009-0.019c-0.378-1.062-0.595-2.199-0.595-3.39c0-0.448,0.032-0.897,0.094-1.344
	c1.399-0.31,2.73-0.793,3.982-1.416c0.122-0.06,0.246-0.113,0.366-0.176c0.275-0.145,0.541-0.305,0.807-0.465
	c0.205-0.122,0.411-0.241,0.61-0.371c0.221-0.144,0.434-0.297,0.647-0.451c0.231-0.165,0.459-0.333,0.682-0.51
	c0.187-0.149,0.369-0.302,0.55-0.459c0.229-0.198,0.453-0.401,0.672-0.61c0.169-0.162,0.335-0.325,0.497-0.493
	c0.205-0.213,0.403-0.434,0.598-0.658c0.164-0.188,0.327-0.375,0.483-0.569c0.049-0.062,0.105-0.118,0.154-0.181
	c0.049,0.063,0.104,0.119,0.154,0.181c0.156,0.195,0.319,0.382,0.483,0.569c0.195,0.224,0.393,0.444,0.598,0.658
	c0.162,0.168,0.328,0.331,0.497,0.493c0.219,0.209,0.442,0.413,0.672,0.61c0.181,0.156,0.363,0.31,0.55,0.459
	c0.223,0.176,0.451,0.344,0.682,0.51c0.213,0.154,0.426,0.307,0.647,0.451c0.199,0.13,0.405,0.249,0.61,0.371
	c0.267,0.159,0.532,0.319,0.807,0.465c0.12,0.063,0.244,0.116,0.366,0.176c1.252,0.623,2.583,1.106,3.982,1.416
	c0.062,0.447,0.094,0.896,0.094,1.344C88.489,87.632,83.94,92.181,78.349,92.181z M102.317,63.603
	c0,5.592-4.549,10.141-10.141,10.141c-0.185,0-0.366-0.018-0.548-0.028c-0.018-0.001-0.036-0.006-0.055-0.007
	c-1.982-0.116-3.831-0.807-5.366-1.926c-0.07-0.051-0.139-0.103-0.207-0.155c-0.146-0.112-0.289-0.226-0.429-0.346
	c-0.068-0.059-0.133-0.121-0.199-0.181c-0.259-0.236-0.507-0.484-0.742-0.747c-0.048-0.054-0.099-0.106-0.146-0.161
	c-0.125-0.145-0.243-0.297-0.36-0.45c-0.047-0.062-0.094-0.123-0.139-0.186c-0.122-0.168-0.242-0.339-0.354-0.516
	c-0.008-0.012-0.014-0.024-0.022-0.036c-0.389-0.618-0.716-1.284-0.97-1.992c-0.002-0.007-0.006-0.013-0.009-0.019
	c-0.378-1.062-0.595-2.199-0.595-3.39c0-0.448,0.032-0.897,0.094-1.344c0.608-0.135,1.202-0.304,1.785-0.5
	c0.038-0.013,0.074-0.028,0.112-0.041c0.521-0.179,1.032-0.381,1.529-0.607c0.12-0.054,0.236-0.114,0.355-0.171
	c0.406-0.196,0.806-0.403,1.194-0.628c0.167-0.096,0.329-0.198,0.492-0.299c0.329-0.206,0.651-0.42,0.966-0.647
	c0.186-0.134,0.369-0.27,0.55-0.411c0.281-0.22,0.553-0.45,0.821-0.686c0.181-0.161,0.362-0.321,0.537-0.489
	c0.262-0.252,0.511-0.516,0.758-0.784c0.152-0.166,0.307-0.327,0.453-0.498c0.285-0.335,0.551-0.685,0.81-1.041
	c0.085-0.117,0.177-0.227,0.259-0.346c0.343-0.494,0.664-1.004,0.955-1.534C98.574,54.317,102.317,58.531,102.317,63.603z
	 M78.349,35.025c5.592,0,10.141,4.549,10.141,10.141c0,1.19-0.217,2.328-0.595,3.39c-0.002,0.006-0.006,0.013-0.009,0.019
	c-0.253,0.708-0.58,1.374-0.97,1.992c-0.008,0.012-0.014,0.025-0.022,0.036c-0.112,0.177-0.232,0.348-0.354,0.516
	c-0.046,0.063-0.092,0.124-0.139,0.186c-0.117,0.153-0.235,0.305-0.36,0.45c-0.047,0.055-0.098,0.107-0.146,0.161
	c-0.235,0.262-0.483,0.511-0.742,0.747c-0.067,0.06-0.131,0.122-0.199,0.181c-0.14,0.12-0.283,0.234-0.429,0.346
	c-0.068,0.053-0.137,0.104-0.207,0.155c-1.534,1.119-3.383,1.81-5.366,1.926c-0.019,0.001-0.037,0.006-0.055,0.007
	c-0.183,0.01-0.363,0.028-0.548,0.028c-0.185,0-0.366-0.018-0.548-0.028c-0.018-0.001-0.036-0.006-0.055-0.007
	c-1.982-0.116-3.831-0.807-5.366-1.926c-0.07-0.051-0.139-0.103-0.207-0.155c-0.146-0.112-0.289-0.226-0.429-0.346
	c-0.068-0.059-0.133-0.121-0.199-0.181c-0.259-0.236-0.507-0.484-0.742-0.747c-0.048-0.054-0.099-0.106-0.146-0.161
	c-0.125-0.145-0.243-0.297-0.36-0.45c-0.047-0.062-0.094-0.123-0.139-0.186c-0.122-0.168-0.242-0.339-0.354-0.516
	c-0.008-0.012-0.014-0.024-0.022-0.036c-0.389-0.618-0.716-1.284-0.97-1.992c-0.002-0.007-0.006-0.013-0.009-0.019
	c-0.378-1.062-0.595-2.199-0.595-3.39C68.208,39.574,72.757,35.025,78.349,35.025z M50.693,35.025
	c5.592,0,10.141,4.549,10.141,10.141c0,1.19-0.217,2.328-0.595,3.39c-0.002,0.006-0.006,0.013-0.009,0.019
	c-0.253,0.708-0.58,1.374-0.97,1.992c-0.008,0.012-0.014,0.025-0.022,0.036c-0.112,0.177-0.232,0.348-0.354,0.516
	c-0.046,0.063-0.092,0.124-0.139,0.186c-0.117,0.153-0.235,0.305-0.36,0.45c-0.047,0.055-0.098,0.107-0.146,0.161
	c-0.235,0.262-0.483,0.511-0.742,0.747c-0.067,0.06-0.131,0.122-0.199,0.181c-0.14,0.12-0.283,0.234-0.429,0.346
	c-0.068,0.053-0.137,0.104-0.207,0.155c-1.534,1.119-3.383,1.81-5.366,1.926c-0.019,0.001-0.037,0.006-0.055,0.007
	c-0.183,0.01-0.363,0.028-0.548,0.028s-0.366-0.018-0.548-0.028c-0.018-0.001-0.036-0.006-0.055-0.007
	c-1.982-0.116-3.831-0.807-5.366-1.926c-0.07-0.051-0.139-0.103-0.207-0.155c-0.146-0.112-0.289-0.226-0.429-0.346
	c-0.068-0.059-0.133-0.121-0.199-0.181c-0.259-0.236-0.507-0.484-0.742-0.747c-0.048-0.054-0.099-0.106-0.146-0.161
	c-0.125-0.145-0.243-0.297-0.36-0.45c-0.047-0.062-0.094-0.123-0.139-0.186c-0.122-0.168-0.242-0.339-0.354-0.516
	c-0.008-0.012-0.014-0.024-0.022-0.036c-0.389-0.618-0.716-1.284-0.97-1.992c-0.002-0.007-0.006-0.013-0.009-0.019
	c-0.378-1.062-0.595-2.199-0.595-3.39C40.552,39.574,45.101,35.025,50.693,35.025z M35.337,53.578
	c0.291,0.53,0.612,1.039,0.955,1.534c0.082,0.119,0.174,0.229,0.259,0.346c0.259,0.356,0.525,0.706,0.81,1.041
	c0.145,0.171,0.301,0.333,0.453,0.498c0.246,0.268,0.495,0.532,0.758,0.784c0.175,0.168,0.356,0.328,0.537,0.489
	c0.267,0.236,0.539,0.466,0.821,0.686c0.181,0.141,0.364,0.277,0.55,0.411c0.314,0.227,0.636,0.441,0.966,0.647
	c0.163,0.101,0.325,0.203,0.492,0.299c0.388,0.225,0.788,0.432,1.194,0.628c0.119,0.057,0.235,0.117,0.355,0.171
	c0.498,0.226,1.008,0.428,1.529,0.607c0.038,0.013,0.074,0.029,0.112,0.041c0.583,0.196,1.177,0.365,1.785,0.5
	c0.062,0.447,0.094,0.896,0.094,1.344c0,1.19-0.217,2.328-0.595,3.39c-0.002,0.006-0.006,0.013-0.009,0.019
	c-0.253,0.708-0.58,1.374-0.97,1.992c-0.008,0.012-0.014,0.025-0.022,0.036c-0.112,0.177-0.232,0.348-0.354,0.516
	c-0.046,0.063-0.092,0.124-0.139,0.186c-0.117,0.153-0.235,0.305-0.36,0.45c-0.047,0.055-0.098,0.107-0.146,0.161
	c-0.235,0.262-0.483,0.511-0.742,0.747c-0.067,0.06-0.131,0.122-0.199,0.181c-0.14,0.12-0.283,0.234-0.429,0.346
	c-0.068,0.053-0.137,0.104-0.207,0.155c-1.534,1.119-3.383,1.81-5.366,1.926c-0.019,0.001-0.037,0.006-0.055,0.007
	c-0.183,0.01-0.363,0.028-0.548,0.028c-5.592,0-10.141-4.549-10.141-10.141C26.724,58.531,30.467,54.317,35.337,53.578z"/>
</svg>
