<?xml version="1.0" encoding="utf-8"?>
<!-- Generator: Adobe Illustrator 16.0.1, SVG Export Plug-In . SVG Version: 6.00 Build 0)  -->
<!DOCTYPE svg PUBLIC "-//W3C//DTD SVG 1.1//EN" "http://www.w3.org/Graphics/SVG/1.1/DTD/svg11.dtd">
<svg version="1.1" id="full_1_" xmlns="http://www.w3.org/2000/svg" xmlns:xlink="http://www.w3.org/1999/xlink" x="0px" y="0px"
	 width="45px" height="45px" viewBox="0 0 45 45" enable-background="new 0 0 45 45" xml:space="preserve" fill="#000000">
<g id="full">
	<g>
		<path fill-rule="evenodd" clip-rule="evenodd" d="M29.518,14.999h-4.205c-0.259,0-0.469,0.21-0.469,0.469
			c0,0.26,0.21,0.469,0.469,0.469h3.107l-5.063,5.063l0.663,0.663l5.057-5.058l-0.015,3.082c0,0.259,0.21,0.469,0.469,0.469
			S30,19.945,30,19.687v-4.219c0-0.139-0.058-0.25-0.148-0.328C29.767,15.054,29.648,14.999,29.518,14.999z M20.979,23.337
			l-5.057,5.057l0.015-3.082c0-0.259-0.21-0.468-0.469-0.468S15,25.053,15,25.312v4.219c0,0.139,0.057,0.251,0.148,0.328
			c0.085,0.087,0.203,0.141,0.334,0.141h4.206c0.259,0,0.469-0.21,0.469-0.469s-0.21-0.469-0.469-0.469H16.58L21.642,24
			L20.979,23.337z M22.5,0C10.093,0,0,10.094,0,22.5S10.093,45,22.5,45C34.906,45,45,34.906,45,22.5S34.906,0,22.5,0z M22.5,43.199
			c-11.414,0-20.7-9.285-20.7-20.699S11.086,1.8,22.5,1.8s20.7,9.286,20.7,20.7S33.914,43.199,22.5,43.199z"/>
	</g>
</g>
</svg>
