<?xml version="1.0" encoding="utf-8"?>
<!-- Generator: Adobe Illustrator 16.0.0, SVG Export Plug-In . SVG Version: 6.00 Build 0)  -->
<!DOCTYPE svg PUBLIC "-//W3C//DTD SVG 1.1//EN" "http://www.w3.org/Graphics/SVG/1.1/DTD/svg11.dtd">
<svg version="1.1" id="Capa_1" xmlns="http://www.w3.org/2000/svg" xmlns:xlink="http://www.w3.org/1999/xlink" x="0px" y="0px"
	 width="595.279px" height="841.891px" viewBox="0 0 595.279 841.891" enable-background="new 0 0 595.279 841.891"
	 xml:space="preserve">
<g>
	<path fill="#333333" d="M497.154,415.355c-9.67,0-17.156,7.453-17.156,17.169v234.519H358.339v-95.764
		c0-8.984-7.486-16.837-16.537-16.837h-87.965c-9.676,0-17.469,7.853-17.469,16.837v95.764H115.017V440.311
		c0-9.051-7.48-16.57-17.156-16.57c-9.044,0-16.531,7.52-16.531,16.57v243.902c0,9.051,7.487,16.57,16.531,16.57h155.977
		c9.045,0,16.531-7.52,16.531-16.57v-95.764h54.277v95.764c0,9.051,7.486,16.57,17.156,16.57h155.352
		c9.044,0,16.531-7.52,16.531-16.57V432.524C513.685,422.809,506.198,415.355,497.154,415.355z"/>
	<path fill="#333333" d="M590.422,428.731L455.041,292.772v-92.703c0-9.65-7.799-17.104-17.469-17.104
		c-9.051,0-16.537,7.454-16.537,17.104v58.696L309.36,146.431c-3.421-3.46-7.487-5.324-11.54-5.324
		c-4.678,0-8.737,1.93-12.165,5.324L5.217,426.868c-6.728,6.722-7.174,17.502,0,23.691c6.236,7.188,16.977,6.722,23.705,0
		L297.82,182.301l268.272,270.787c2.795,2.795,6.86,4.393,12.165,4.393c4.678,0,8.731-1.598,12.165-4.393
		C596.664,446.833,597.13,435.52,590.422,428.731z"/>
</g>
</svg>
