<?xml version="1.0" encoding="iso-8859-1"?>
<!-- Generator: Adobe Illustrator 17.1.0, SVG Export Plug-In . SVG Version: 6.00 Build 0)  -->
<!DOCTYPE svg PUBLIC "-//W3C//DTD SVG 1.1//EN" "http://www.w3.org/Graphics/SVG/1.1/DTD/svg11.dtd">
<svg version="1.1" id="Layer_1" xmlns="http://www.w3.org/2000/svg" xmlns:xlink="http://www.w3.org/1999/xlink" x="0px" y="0px"
	 viewBox="0 0 15 14" style="enable-background:new 0 0 15 14;" xml:space="preserve" fill="#373737">
<path style="fill-rule:evenodd;clip-rule:evenodd;" d="M7.717,0.251c0.364,0.336,0.373,0.89,0.022,1.238L1.58,7.574
	C1.229,7.922,0.649,7.931,0.285,7.595c-0.364-0.336-0.374-0.891-0.022-1.238l6.158-6.085C6.773-0.076,7.353-0.085,7.717,0.251z"/>
<path style="fill-rule:evenodd;clip-rule:evenodd;" d="M0.285,6.416c-0.364,0.336-0.374,0.89-0.022,1.237l6.158,6.078
	c0.352,0.347,0.932,0.357,1.296,0.021c0.364-0.336,0.373-0.89,0.022-1.237L1.58,6.436C1.229,6.089,0.649,6.08,0.285,6.416z"/>
<path style="fill-rule:evenodd;clip-rule:evenodd;" d="M2,6h12c0.552,0,1,0.448,1,1s-0.448,1-1,1H2C1.448,8,1,7.552,1,7S1.448,6,2,6
	z"/>
</svg>
