<?xml version="1.0" encoding="utf-8"?>
<!-- Generator: Adobe Illustrator 16.0.1, SVG Export Plug-In . SVG Version: 6.00 Build 0)  -->
<!DOCTYPE svg PUBLIC "-//W3C//DTD SVG 1.1//EN" "http://www.w3.org/Graphics/SVG/1.1/DTD/svg11.dtd">
<svg version="1.1" id="COSPO_1_" xmlns="http://www.w3.org/2000/svg" xmlns:xlink="http://www.w3.org/1999/xlink" x="0px" y="0px"
	 width="182.977px" height="35.996px" viewBox="0 0 182.977 35.996" enable-background="new 0 0 182.977 35.996"
	 xml:space="preserve" fill="#ffffff">
<g id="COSPO">
	<g>
		<path fill-rule="evenodd" clip-rule="evenodd" d="M97.411,19.304c-0.801-0.643-1.711-1.178-2.728-1.604
			c-1.018-0.426-2.063-0.816-3.136-1.171c-1.074-0.354-2.12-0.711-3.137-1.073c-1.017-0.362-1.927-0.809-2.728-1.34
			c-0.801-0.531-1.446-1.175-1.935-1.93c-0.489-0.756-0.733-1.714-0.733-2.872c0-0.885,0.164-1.729,0.494-2.534
			c0.329-0.805,0.811-1.513,1.444-2.124c0.634-0.611,1.421-1.093,2.36-1.448c0.939-0.354,2.027-0.53,3.263-0.53
			s2.275,0.152,3.118,0.458s1.545,0.64,2.106,1.002c0.563,0.361,1.008,0.691,1.337,0.989s0.598,0.446,0.807,0.446
			c0.272,0,0.48-0.137,0.624-0.41l0.576-1.11c-1.153-1.158-2.431-2.019-3.832-2.582c-1.402-0.563-2.984-0.845-4.747-0.845
			c-1.57,0-2.968,0.245-4.194,0.736c-1.226,0.49-2.255,1.143-3.088,1.954c-0.833,0.813-1.466,1.75-1.898,2.812
			c-0.433,1.062-0.649,2.164-0.649,3.305c0,1.465,0.244,2.684,0.733,3.657c0.488,0.974,1.133,1.785,1.935,2.438
			c0.801,0.651,1.71,1.186,2.728,1.604c1.018,0.419,2.063,0.797,3.137,1.135c1.073,0.338,2.119,0.684,3.136,1.037
			c1.018,0.354,1.927,0.793,2.729,1.315c0.8,0.523,1.445,1.175,1.935,1.954c0.488,0.781,0.733,1.774,0.733,2.98
			c0,1.11-0.192,2.152-0.577,3.126s-0.941,1.813-1.671,2.521c-0.729,0.709-1.622,1.268-2.68,1.678s-2.259,0.615-3.604,0.615
			c-0.978,0-1.851-0.097-2.62-0.289c-0.77-0.193-1.45-0.431-2.042-0.712c-0.593-0.281-1.114-0.588-1.563-0.918
			c-0.449-0.329-0.833-0.635-1.154-0.917c-0.32-0.281-0.592-0.519-0.816-0.712c-0.225-0.192-0.409-0.288-0.553-0.288
			c-0.256,0-0.48,0.119-0.672,0.36l-0.672,1.063c1.216,1.384,2.631,2.474,4.248,3.271c1.616,0.796,3.543,1.194,5.784,1.194
			c1.728,0,3.263-0.27,4.608-0.809c1.344-0.539,2.479-1.275,3.408-2.208c0.928-0.934,1.636-2.031,2.123-3.294
			c0.488-1.263,0.732-2.61,0.732-4.042c0-1.4-0.244-2.57-0.732-3.511C98.857,20.741,98.211,19.949,97.411,19.304z M64.76,5.374
			c-1.417-1.519-3.111-2.691-5.083-3.515c-1.973-0.824-4.161-1.236-6.563-1.236c-2.372,0-4.543,0.416-6.516,1.248
			c-1.973,0.832-3.668,2.004-5.083,3.516c-1.417,1.512-2.519,3.335-3.306,5.471c-0.788,2.135-1.182,4.507-1.182,7.115
			c0,2.624,0.394,5.003,1.182,7.139c0.787,2.136,1.889,3.96,3.306,5.471c1.416,1.513,3.11,2.681,5.083,3.504
			c1.973,0.825,4.144,1.236,6.516,1.236c2.402,0,4.59-0.411,6.563-1.236c1.973-0.823,3.667-1.991,5.083-3.504
			c1.416-1.511,2.514-3.335,3.293-5.471s1.17-4.515,1.17-7.139c0-2.608-0.39-4.98-1.17-7.115C67.274,8.722,66.176,6.895,64.76,5.374
			z M65.715,24.368c-0.653,1.881-1.572,3.477-2.757,4.788c-1.185,1.312-2.613,2.312-4.284,2.999
			c-1.67,0.688-3.524,1.032-5.561,1.032c-2.005,0-3.839-0.344-5.501-1.032c-1.663-0.688-3.095-1.688-4.296-2.999
			c-1.201-1.312-2.132-2.907-2.792-4.788c-0.661-1.88-0.991-4.011-0.991-6.395c0-2.368,0.33-4.496,0.991-6.384
			c0.66-1.888,1.591-3.487,2.792-4.799c1.202-1.312,2.634-2.315,4.296-3.011s3.496-1.044,5.501-1.044
			c2.036,0,3.89,0.348,5.561,1.044c1.671,0.696,3.099,1.7,4.284,3.011c1.186,1.313,2.104,2.912,2.757,4.799
			c0.651,1.888,0.978,4.016,0.978,6.384C66.693,20.357,66.367,22.488,65.715,24.368z M181.04,10.858
			c-0.779-2.136-1.878-3.963-3.294-5.484c-1.416-1.519-3.11-2.691-5.083-3.515c-1.974-0.824-4.161-1.236-6.563-1.236
			c-2.371,0-4.542,0.416-6.516,1.248c-1.973,0.832-3.667,2.004-5.083,3.516c-1.416,1.512-2.519,3.335-3.306,5.471
			c-0.788,2.135-1.182,4.507-1.182,7.115c0,2.624,0.394,5.003,1.182,7.139c0.787,2.136,1.89,3.96,3.306,5.471
			c1.416,1.513,3.11,2.681,5.083,3.504c1.974,0.825,4.145,1.236,6.516,1.236c2.402,0,4.59-0.411,6.563-1.236
			c1.973-0.823,3.667-1.991,5.083-3.504c1.416-1.511,2.515-3.335,3.294-5.471s1.17-4.515,1.17-7.139
			C182.209,15.365,181.819,12.993,181.04,10.858z M178.701,24.368c-0.652,1.881-1.571,3.477-2.757,4.788s-2.612,2.312-4.283,2.999
			c-1.671,0.688-3.524,1.032-5.562,1.032c-2.005,0-3.839-0.344-5.501-1.032c-1.663-0.688-3.095-1.688-4.296-2.999
			c-1.202-1.312-2.133-2.907-2.792-4.788c-0.661-1.88-0.991-4.011-0.991-6.395c0-2.368,0.33-4.496,0.991-6.384
			c0.659-1.888,1.59-3.487,2.792-4.799c1.201-1.312,2.633-2.315,4.296-3.011c1.662-0.696,3.496-1.044,5.501-1.044
			c2.037,0,3.891,0.348,5.562,1.044s3.098,1.7,4.283,3.011c1.186,1.313,2.104,2.912,2.757,4.799
			c0.652,1.888,0.979,4.016,0.979,6.384C179.679,20.357,179.353,22.488,178.701,24.368z M139.894,12.536
			c-0.54-0.33-1.25-0.168-1.586,0.361s-0.171,1.226,0.368,1.556c1.255,0.769,2.004,2.093,2.004,3.544
			c0,1.452-0.749,2.777-2.004,3.545l-18.879,11.549c-1.331,0.814-2.946,0.855-4.318,0.108c-1.372-0.748-2.191-2.113-2.191-3.652
			V6.448c0-1.54,0.819-2.905,2.191-3.652s2.987-0.707,4.318,0.107l10.99,6.724c0.539,0.329,1.249,0.168,1.586-0.361
			c0.336-0.529,0.171-1.225-0.368-1.555l-10.989-6.724c-2.053-1.254-4.539-1.317-6.653-0.166c-2.114,1.151-3.377,3.255-3.377,5.627
			v23.099c0,2.372,1.263,4.476,3.377,5.627c1.007,0.548,2.098,0.821,3.188,0.821c1.196,0,2.391-0.33,3.466-0.987l18.878-11.551
			c1.935-1.183,3.088-3.224,3.088-5.46C142.982,15.762,141.829,13.72,139.894,12.536z M26.547,29.251
			c-0.096,0-0.179,0.021-0.25,0.061c-0.072,0.04-0.147,0.092-0.227,0.156c-0.668,0.623-1.345,1.167-2.029,1.631
			c-0.685,0.464-1.424,0.855-2.219,1.176c-0.796,0.32-1.667,0.561-2.613,0.72c-0.947,0.16-2.025,0.24-3.234,0.24
			c-1.925,0-3.711-0.348-5.357-1.044c-1.647-0.696-3.075-1.695-4.284-2.999c-1.209-1.304-2.157-2.9-2.84-4.788
			c-0.685-1.888-1.026-4.031-1.026-6.431c0-2.335,0.346-4.444,1.038-6.323c0.692-1.88,1.658-3.48,2.899-4.799
			c1.241-1.32,2.721-2.336,4.439-3.047c1.718-0.712,3.604-1.068,5.656-1.068c1.113,0,2.108,0.084,2.983,0.252
			s1.647,0.376,2.315,0.624s1.245,0.521,1.73,0.816c0.485,0.295,0.899,0.567,1.241,0.815c0.342,0.248,0.625,0.456,0.847,0.624
			s0.406,0.252,0.549,0.252c0.27,0,0.469-0.096,0.597-0.288l0.739-1.08c-0.748-0.671-1.511-1.263-2.291-1.775
			s-1.611-0.94-2.494-1.284c-0.883-0.344-1.834-0.608-2.853-0.792s-2.14-0.276-3.365-0.276c-2.45,0-4.69,0.42-6.718,1.26
			C7.752,2.723,6.01,3.907,4.554,5.435c-1.456,1.528-2.585,3.356-3.389,5.483c-0.804,2.128-1.205,4.48-1.205,7.056
			c0,2.624,0.39,5.007,1.169,7.15c0.779,2.145,1.866,3.973,3.258,5.483c1.392,1.512,3.063,2.68,5.012,3.504
			c1.949,0.824,4.093,1.236,6.432,1.236c1.4,0,2.685-0.116,3.854-0.349c1.169-0.231,2.244-0.56,3.222-0.983
			c0.978-0.424,1.881-0.937,2.708-1.536c0.828-0.601,1.591-1.275,2.291-2.028l-0.954-1.031
			C26.842,29.308,26.706,29.251,26.547,29.251z"/>
	</g>
</g>
</svg>
