<?xml version="1.0" encoding="iso-8859-1"?>
<!-- Generator: Adobe Illustrator 17.1.0, SVG Export Plug-In . SVG Version: 6.00 Build 0)  -->
<!DOCTYPE svg PUBLIC "-//W3C//DTD SVG 1.1//EN" "http://www.w3.org/Graphics/SVG/1.1/DTD/svg11.dtd">
<svg version="1.1" id="Layer_1" xmlns="http://www.w3.org/2000/svg" xmlns:xlink="http://www.w3.org/1999/xlink" x="0px" y="0px"
	 viewBox="0 0 14 14" style="enable-background:new 0 0 14 14;" xml:space="preserve" fill="#000000">
<path style="fill-rule:evenodd;clip-rule:evenodd;" d="M13.862,13.865c-0.177,0.174-0.464,0.174-0.641,0l-3.628-3.57
	c-1.012,0.808-2.301,1.294-3.706,1.294c-3.253,0-5.888-2.595-5.888-5.795c0-3.201,2.636-5.795,5.888-5.795
	c3.252,0,5.889,2.594,5.889,5.795c0,1.496-0.581,2.856-1.528,3.884l3.614,3.556C14.038,13.409,14.038,13.691,13.862,13.865z
	 M5.887,0.891c-2.752,0-4.983,2.195-4.983,4.903c0,2.708,2.231,4.903,4.983,4.903c2.752,0,4.983-2.195,4.983-4.903
	C10.87,3.086,8.639,0.891,5.887,0.891z"/>
</svg>
