<?xml version="1.0" encoding="utf-8"?>
<!-- Generator: Adobe Illustrator 18.1.1, SVG Export Plug-In . SVG Version: 6.00 Build 0)  -->
<svg version="1.1" id="Layer_1" xmlns="http://www.w3.org/2000/svg" xmlns:xlink="http://www.w3.org/1999/xlink" x="0px" y="0px"
	 width="100px" height="50px" viewBox="0 0 134.5 82" enable-background="new 0 0 134.5 82" xml:space="preserve">
<g>
	<path fill="#373737" d="M134,51.1c-0.2,1.3-0.5,2.5-1,3.5c-0.5,1-1.1,1.9-1.8,2.5c-0.8,0.7-1.6,1.1-2.7,1.4c-1,0.3-2.2,0.3-3.5,0.2
		c-1.3-0.2-2.4-0.5-3.4-1.1c-0.9-0.5-1.7-1.2-2.2-2.1c-0.5-0.8-0.9-1.8-1.1-2.9c-0.2-1.1-0.2-2.3-0.1-3.7c0.2-1.3,0.4-2.5,0.9-3.5
		c0.4-1,1-1.9,1.8-2.6c0.7-0.7,1.7-1.2,2.7-1.5c1.1-0.3,2.3-0.3,3.7-0.2c1.4,0.2,2.5,0.6,3.5,1.1c0.9,0.6,1.7,1.3,2.2,2.1
		c0.5,0.9,0.9,1.8,1,3C134.3,48.6,134.2,49.8,134,51.1z M130.3,48.1c-0.1-0.7-0.2-1.4-0.5-1.9c-0.3-0.5-0.6-1-1.1-1.3
		c-0.5-0.3-1.1-0.5-1.8-0.6c-0.7-0.1-1.3,0-1.9,0.2c-0.6,0.2-1,0.5-1.4,1c-0.4,0.5-0.7,1-1,1.7c-0.2,0.7-0.4,1.5-0.5,2.4
		c-0.1,0.9-0.1,1.7-0.1,2.4c0.1,0.7,0.2,1.4,0.5,1.9c0.3,0.5,0.6,1,1.1,1.3c0.5,0.3,1,0.5,1.7,0.6c0.7,0.1,1.3,0,1.9-0.1
		c0.5-0.2,1-0.5,1.4-1c0.4-0.4,0.7-1,1-1.7c0.3-0.7,0.4-1.5,0.6-2.4C130.3,49.6,130.4,48.8,130.3,48.1z M113.5,42.9
		c-0.4,3.7-0.8,7.4-1.1,11c0.7,0.4,1.3,0.8,2,1.2c-0.1,0.7-0.1,1.4-0.2,2c-2.6-0.3-5.2-0.5-7.9-0.8c0.1-0.7,0.1-1.4,0.2-2.1
		c0.7-0.3,1.5-0.5,2.2-0.8c0.3-3.7,0.7-7.4,1-11c-0.7-0.4-1.4-0.8-2.1-1.2c0.1-0.7,0.1-1.4,0.2-2.1c2.7,0.2,5.4,0.5,8.2,0.8
		c-0.1,0.7-0.1,1.4-0.2,2.1C115,42.4,114.2,42.7,113.5,42.9z M96.9,49.1c-0.5,0-1.1-0.1-1.6-0.1c-0.1,2.2-0.3,4.4-0.4,6.6
		c-1.2-0.1-2.4-0.1-3.7-0.2c0.3-5.7,0.6-11.4,0.9-17.1c1.6,0.1,3.3,0.2,4.9,0.3c2.3,0.2,4,0.7,5,1.6c1,0.9,1.5,2.3,1.3,4
		c0,0.6-0.2,1.1-0.4,1.6c-0.2,0.5-0.4,0.9-0.7,1.2c-0.3,0.3-0.6,0.6-1,0.9c-0.4,0.3-0.8,0.5-1.2,0.6c0.8,1.5,1.5,2.8,2.1,3.9
		c0.3,0.5,0.5,1,0.8,1.4c0.2,0.5,0.5,0.9,0.7,1.3s0.4,0.7,0.5,0.9c0.1,0.1,0.1,0.2,0.2,0.3c-1.4-0.1-2.7-0.2-4.1-0.3
		C99.1,53.6,98,51.3,96.9,49.1z M99,42.1c-0.5-0.4-1.2-0.6-2.2-0.7c-0.3,0-0.6,0-1-0.1c-0.1,1.5-0.2,3.1-0.3,4.6c0.3,0,0.7,0,1,0.1
		c1,0.1,1.8-0.1,2.3-0.5c0.5-0.4,0.7-0.9,0.8-1.7C99.6,43.1,99.4,42.5,99,42.1z M80.5,40.7c0,1.3-0.1,2.5-0.1,3.8c2,0.1,4,0.1,6,0.2
		c0,1-0.1,2-0.1,3c-2-0.1-4-0.2-6-0.2c0,1.5-0.1,2.9-0.1,4.4c2.1,0.1,4.2,0.1,6.4,0.2c0,1-0.1,2-0.1,3c-3.3-0.1-6.7-0.2-10-0.3
		c0.1-5.7,0.2-11.4,0.3-17.1c3.5,0.1,6.9,0.2,10.4,0.3c0,1-0.1,2-0.1,3C84.8,40.8,82.6,40.8,80.5,40.7z M68.2,40.6
		c0,4.7,0,9.4,0,14.1c-1.2,0-2.4,0-3.7,0c0-4.7-0.1-9.4-0.1-14.1c-1.5,0-3,0-4.5,0.1c0-1,0-2-0.1-3c4.3-0.1,8.6-0.1,12.8-0.1
		c0,1,0,2,0,3C71.2,40.6,69.7,40.6,68.2,40.6z M55.8,53.7c-0.5,0.4-1.1,0.8-1.8,1.1c-0.7,0.3-1.6,0.4-2.5,0.4c-0.8,0-1.6,0-2.4-0.2
		s-1.5-0.4-2.2-0.7c-0.1-1.1-0.1-2.2-0.2-3.4c0.4,0.2,0.8,0.3,1.2,0.5c0.4,0.2,0.8,0.3,1.2,0.4c0.4,0.1,0.8,0.2,1.2,0.3
		c0.4,0.1,0.8,0.1,1.2,0.1c0.4,0,0.8-0.1,1-0.2c0.3-0.1,0.5-0.2,0.7-0.4c0.2-0.2,0.3-0.4,0.4-0.6c0.1-0.2,0.1-0.5,0.1-0.7
		c0-0.3-0.1-0.6-0.2-0.8c-0.1-0.2-0.4-0.5-0.6-0.7c-0.3-0.2-0.6-0.4-0.9-0.6c-0.4-0.2-0.8-0.4-1.2-0.6c-0.4-0.2-0.8-0.4-1.3-0.6
		c-0.5-0.2-0.9-0.6-1.3-0.9c-0.4-0.4-0.8-0.8-1.1-1.4c-0.3-0.5-0.5-1.2-0.5-2c0-0.8,0.1-1.5,0.3-2.1c0.2-0.6,0.6-1.1,1.1-1.6
		c0.5-0.4,1.1-0.8,1.7-1c0.7-0.2,1.5-0.4,2.3-0.4c0.4,0,0.9,0,1.3,0c0.4,0,0.8,0.1,1.2,0.2c0.4,0.1,0.8,0.2,1.2,0.3
		c0.4,0.1,0.8,0.3,1.3,0.5c-0.4,1-0.8,1.9-1.2,2.9c-0.4-0.2-0.7-0.3-1-0.4c-0.3-0.1-0.6-0.2-0.9-0.3c-0.3-0.1-0.6-0.1-0.9-0.2
		s-0.6,0-0.9,0c-0.6,0-1.1,0.2-1.4,0.5c-0.3,0.3-0.5,0.8-0.5,1.3c0,0.3,0.1,0.5,0.2,0.8c0.1,0.2,0.3,0.4,0.5,0.6
		c0.2,0.2,0.5,0.4,0.9,0.6c0.4,0.2,0.8,0.4,1.3,0.6c0.6,0.3,1.2,0.6,1.7,0.9c0.5,0.3,1,0.7,1.3,1c0.4,0.4,0.7,0.8,0.9,1.3
		c0.2,0.5,0.3,1.1,0.3,1.8c0,0.8-0.1,1.5-0.3,2.1C56.7,52.7,56.3,53.3,55.8,53.7z M41.5,47.7c-0.5,0.6-1.2,1-2,1.4s-1.9,0.6-3.2,0.7
		c-0.3,0-0.6,0-0.9,0.1c0.2,2,0.3,4.1,0.5,6.1c-1.2,0.1-2.4,0.2-3.7,0.3c-0.5-5.7-0.9-11.4-1.4-17.1c1.7-0.1,3.3-0.3,5-0.4
		c1.2-0.1,2.2,0,3,0.2c0.9,0.2,1.6,0.5,2.1,0.9c0.6,0.4,1,1,1.3,1.6c0.3,0.6,0.5,1.4,0.5,2.2c0,0.7,0,1.5-0.2,2.2
		C42.3,46.5,42,47.1,41.5,47.7z M38.1,42.1c-0.5-0.4-1.3-0.5-2.3-0.4c-0.3,0-0.6,0-1,0.1c0.1,1.7,0.3,3.4,0.4,5.1
		c0.2,0,0.5,0,0.7-0.1c1.1-0.1,1.8-0.3,2.3-0.8c0.5-0.4,0.7-1.1,0.7-2C38.9,43.1,38.6,42.5,38.1,42.1z M20,55.3
		c0.7-0.4,1.3-0.8,2-1.2c-0.4-3.7-0.8-7.3-1.2-11c-0.8-0.2-1.5-0.5-2.3-0.7c-0.1-0.7-0.2-1.4-0.2-2c2.7-0.3,5.4-0.6,8.2-0.8
		c0.1,0.7,0.1,1.4,0.2,2.1c-0.7,0.4-1.4,0.8-2.1,1.2c0.4,3.7,0.7,7.4,1.1,11c0.7,0.2,1.5,0.5,2.2,0.8c0.1,0.7,0.1,1.4,0.2,2.1
		c-2.6,0.2-5.2,0.5-7.9,0.8C20.1,56.7,20,56,20,55.3z M11.4,51c-2,0.3-4,0.5-6,0.8c0.4,2.4,0.7,4.9,1.1,7.3
		c-1.2,0.2-2.4,0.4-3.6,0.5C2,54,1.2,48.4,0.3,42.7c1.3-0.2,2.5-0.4,3.8-0.6c0.3,2.2,0.6,4.4,1,6.6c2-0.3,4-0.6,6-0.8
		c-0.3-2.2-0.6-4.4-0.9-6.7c1.3-0.2,2.5-0.3,3.8-0.5c0.7,5.7,1.4,11.3,2.1,17c-1.2,0.1-2.4,0.3-3.6,0.5C12.1,55.9,11.7,53.4,11.4,51
		z"/>
	<path fill="#373737" d="M102.9,80.2v1.8h-5.7v-10h5.7v1.7h-3.6v2.2h3.4v1.7h-3.4v2.6H102.9z M92.4,81.9h-2.1v-8.2h-2.5v-1.8h7.1v1.8h-2.5V81.9z
		 M84.9,79.5h-3.4l-0.7,2.4h-2.1l3.2-10h2.6l3.2,10h-2.1L84.9,79.5z M83.7,75.6c0-0.1-0.1-0.2-0.1-0.4c-0.1-0.2-0.1-0.4-0.2-0.6
		c-0.1-0.2-0.1-0.5-0.2-0.7c-0.1-0.2-0.1-0.4-0.1-0.6c0,0.1,0,0.2-0.1,0.4c0,0.1-0.1,0.3-0.1,0.4c0,0.2-0.1,0.3-0.1,0.5
		c0,0.2-0.1,0.3-0.1,0.4c0,0.1-0.1,0.3-0.1,0.4c0,0.1-0.1,0.2-0.1,0.2L82,77.8h2.4L83.7,75.6z M71.7,71.9h2.1v8.2h3.6v1.8h-5.7V71.9
		z M68.3,77.4c-0.3,0.3-0.7,0.5-1.2,0.7c-0.5,0.2-1.1,0.3-1.8,0.3h-0.5v3.6h-2.1v-10h2.8c0.6,0,1.2,0.1,1.7,0.2
		c0.5,0.1,0.8,0.3,1.1,0.6c0.3,0.3,0.5,0.6,0.7,1c0.1,0.4,0.2,0.8,0.2,1.3c0,0.4-0.1,0.9-0.2,1.3C68.8,76.7,68.6,77.1,68.3,77.4z
		 M66.6,74c-0.3-0.2-0.7-0.4-1.3-0.4h-0.5v3h0.4c0.6,0,1-0.1,1.3-0.4c0.3-0.2,0.5-0.6,0.5-1.2C67,74.6,66.9,74.3,66.6,74z
		 M57.5,77.2c0-0.1,0-0.3,0-0.4c0-0.1,0-0.3,0-0.5c0-0.2,0-0.3,0-0.5c0-0.2,0-0.3,0-0.5c0-0.4,0-0.8,0-1.2h-0.1l-2.4,7.8h-1.9
		l-2.2-7.8H51c0,0.4,0.1,0.8,0.1,1.2c0,0.2,0,0.3,0,0.5c0,0.2,0,0.4,0,0.5c0,0.2,0,0.3,0,0.5c0,0.2,0,0.3,0,0.4v4.6h-1.9v-10h2.9
		l2.2,7.6h0l2.3-7.6h2.9v10h-2V77.2z M40.8,71.9h5.7v1.7h-3.6v2.2h3.4v1.7h-3.4v2.6h3.6v1.8h-5.7V71.9z M36,81.9h-2.1v-8.2h-2.5
		v-1.8h7.1v1.8H36V81.9z"/>
</g>
<g>
	<path fill="#373737" d="M97.7,10.4c0,0.5-0.1,0.9-0.2,1.4h0c0,0,0,1-0.3,2.3c0,0.1,0,0.2,0,0.3c0,0.3-0.1,0.5-0.2,0.7c-0.4,1.8-1.2,3.8-2.7,4.9
		c0,0,0,0-0.1,0c-0.6,0.5-1.2,0.8-1.9,1.1c0,0-0.1,0-0.1,0c-2.3,1-4.4,1-5.4,1c0,0,0,0,0,0c-0.3,0-0.6,0-0.9,0
		c-1.7,0.1-3.4-0.2-5.1-0.5c-2.5-0.5-4.4-1.8-5.7-4.1c-0.8-1.4-1.3-2.9-1.7-4.4l-0.9-4.9c0-2.1,1.3-3.3,3.7-4.2
		c0.6-0.2,1.2-0.4,1.8-0.5c2.9-0.5,5.9-0.9,8.8-1c1.7-0.2,4.5-0.3,7,0.6c0.4,0.1,0.7,0.3,1.1,0.5c0.1,0,0.2,0.1,0.2,0.2
		c2.2,1.7,2.6,5,2.6,6.1C97.7,10.1,97.7,10.3,97.7,10.4 M54,21.6c-1.7,0.3-3.4,0.6-5.1,0.5c-0.3,0-0.6,0-0.9,0c0,0,0,0,0,0
		c-1,0-3.1,0-5.4-1c0,0-0.1,0-0.1,0c-0.7-0.3-1.4-0.7-1.9-1.1c0,0,0,0-0.1,0c-1.5-1.1-2.3-3.1-2.7-4.9c-0.1-0.2-0.1-0.4-0.2-0.7
		c0-0.1,0-0.2,0-0.3c-0.2-1.3-0.3-2.3-0.3-2.3h0c-0.1-0.5-0.1-0.9-0.2-1.4c0-0.2,0-0.3,0-0.4c0-1.2,0.4-4.4,2.6-6.1
		c0.1-0.1,0.1-0.1,0.2-0.2c0.3-0.2,0.7-0.4,1.1-0.5c2.5-0.9,5.3-0.8,7-0.6c3,0.1,5.9,0.5,8.8,1c0.6,0.1,1.2,0.3,1.8,0.5
		C61,5,62.3,6.1,62.3,8.2l-0.9,4.9c-0.4,1.5-0.9,3-1.7,4.4C58.4,19.8,56.5,21.1,54,21.6 M101.7,1.2c-2-0.5-4-0.5-6-0.7
		c-8.2-0.6-16.1,0-24,2.3c-1.4,0.4-2.7,0.6-4.1,0.7c0,0-0.1,0-0.1,0c0,0-0.1,0-0.1,0c-1.4,0-2.7-0.2-4.1-0.7
		c-7.9-2.3-15.8-2.9-24-2.3c-2,0.1-4.1,0.2-6,0.7c-1,0.2-1.6,0.8-1.5,1.9c0.1,1.2,0.3,2.3,0.5,3.4c0,0.2,0.1,0.5,0.3,0.6
		c1.7,0.6,1.9,2.2,2.2,3.6c0.5,2.1,0.9,4.2,1.6,6.2c0.9,3.1,2.6,5.4,5.8,6.5c0,0,5.9,1.6,13.5,0.1c1.9-0.7,3.3-1.9,4.5-3.5
		c2-2.6,3.5-5.4,4.5-8.5c0.2-0.8,0.6-1.5,1.1-2.1c0.5-0.6,1.2-1,1.8-1c0.6,0,1.3,0.3,1.8,1c0.5,0.6,0.8,1.4,1.1,2.1
		c1,3.1,2.5,5.9,4.5,8.5c1.2,1.5,2.6,2.8,4.5,3.5c7.6,1.5,13.5-0.1,13.5-0.1c3.1-1.1,4.8-3.5,5.8-6.5c0.6-2.1,1.1-4.1,1.6-6.2
		c0.3-1.5,0.5-3,2.2-3.6c0.2-0.1,0.3-0.3,0.3-0.6c0.2-1.1,0.5-2.2,0.5-3.4C103.3,2,102.7,1.5,101.7,1.2"/>
</g>
</svg>
