<?xml version="1.0" encoding="utf-8"?>
<!-- Generator: Adobe Illustrator 17.0.0, SVG Export Plug-In . SVG Version: 6.00 Build 0)  -->
<!DOCTYPE svg PUBLIC "-//W3C//DTD SVG 1.1//EN" "http://www.w3.org/Graphics/SVG/1.1/DTD/svg11.dtd">
<svg version="1.1" id="Шар_1" xmlns="http://www.w3.org/2000/svg" xmlns:xlink="http://www.w3.org/1999/xlink" x="0px" y="0px"
	 width="100px" viewBox="0 0 94 94" enable-background="new 0 0 94 94" xml:space="preserve">
<g>
	<g>
		<path fill="#373737" d="M47.654,93.672c-25.436,0-46.131-20.694-46.131-46.131S22.218,1.408,47.654,1.408
			c25.437,0,46.132,20.695,46.132,46.132S73.091,93.672,47.654,93.672z M47.654,6.382c-22.694,0-41.159,18.463-41.159,41.16
			c0,22.694,18.463,41.159,41.159,41.159s41.16-18.463,41.16-41.159C88.812,24.845,70.349,6.382,47.654,6.382z"/>
	</g>
	<g>
		<g>
			<path fill="#373737" d="M43.46,58.605H31.403V33.543h12.129v3.938h-8.135v6.337h4.975l-1.126,3.759h-3.849v7.446h8.061
				L43.46,58.605L43.46,58.605z"/>
		</g>
		<g>
			<path fill="#373737" d="M49.16,56.814c0,0.477-0.183,0.895-0.545,1.254c-0.363,0.357-0.801,0.537-1.307,0.537
				c-0.484,0-0.908-0.18-1.271-0.537c-0.362-0.358-0.545-0.776-0.545-1.254c0-0.501,0.183-0.931,0.545-1.289
				c0.363-0.357,0.787-0.537,1.271-0.537c0.508,0,0.944,0.18,1.307,0.537C48.979,55.883,49.16,56.311,49.16,56.814z"/>
		</g>
		<g>
			<path fill="#373737" d="M59.874,58.605h-3.996V37.516h-5.229v-3.974h14.6v3.974h-5.374L59.874,58.605L59.874,58.605z"/>
		</g>
		<g>
			<path fill="#373737" d="M65.249,56.814c0,0.477-0.182,0.895-0.545,1.254c-0.363,0.357-0.8,0.537-1.307,0.537
				c-0.483,0-0.907-0.18-1.27-0.537c-0.363-0.358-0.545-0.776-0.545-1.254c0-0.501,0.182-0.931,0.545-1.289
				c0.363-0.357,0.787-0.537,1.27-0.537c0.509,0,0.944,0.18,1.307,0.537C65.068,55.883,65.249,56.311,65.249,56.814z"/>
		</g>
	</g>
</g>
<g>
	<g>
	</g>
</g>
</svg>
