<?xml version="1.0" encoding="utf-8"?>
<!-- Generator: Adobe Illustrator 15.0.0, SVG Export Plug-In  -->
<!DOCTYPE svg PUBLIC "-//W3C//DTD SVG 1.1//EN" "http://www.w3.org/Graphics/SVG/1.1/DTD/svg11.dtd" [
	<!ENTITY ns_flows "http://ns.adobe.com/Flows/1.0/">
]>
<svg version="1.1"
	 xmlns="http://www.w3.org/2000/svg" xmlns:xlink="http://www.w3.org/1999/xlink" xmlns:a="http://ns.adobe.com/AdobeSVGViewerExtensions/3.0/"
	 x="0px" y="0px" width="100px" viewBox="0 0 702 622" enable-background="new 0 0 702 622" xml:space="preserve">
<defs>
</defs>
<path fill="#373737" stroke="#000000" stroke-width="0.25" stroke-miterlimit="10" d="M246.178,2.925c-8.1,5.9-12.4,12.9-12.4,20.2
	c0,3.9,1.2,10,1.9,10c0.4,0,1.3-2.1,1.9-4.8c1.5-5.4,7.3-18.5,8-17.8c0.2,0.3-1,3.9-2.7,8.1c-3.2,8-4.8,14.5-3.6,14.5
	c2.1,0,9.6-7.5,11.5-11.5c1.8-3.8,2.1-5.9,1.8-12C252.177,0.125,251.277-0.775,246.178,2.925z"/>
<path fill="#373737" stroke="#000000" stroke-width="0.25" stroke-miterlimit="10" d="M449.876,3.225c-3.1,9,0.301,20.7,7.9,26.7
	c2.1,1.8,4.1,3.2,4.399,3.2c1.399,0,0.3-5.2-2.899-13.5c-1.9-4.9-3.2-9.1-3-9.3c0.6-0.6,6.699,13.3,7.8,18
	c1.399,5.6,2.2,6,3.101,1.7c1.601-7.9,0.399-13.6-4-20c-2.101-3.1-10.2-9.9-11.7-9.9C451.177,0.125,450.477,1.525,449.876,3.225z"/>
<path fill="#373737" stroke="#000000" stroke-width="0.25" stroke-miterlimit="10" d="M267.678,12.525c-2.101,0.7-4.9,2.3-6.5,3.5
	c-3.301,2.6-8.9,10-8.101,10.7c0.9,0.9,9.5-2.3,16.5-6c3.4-1.9,6.2-3,6.2-2.6c0,1.2-10.5,6.9-17.4,9.5c-7.3,2.8-5.8,4.1,3.5,3.2
	c7.301-0.8,11.5-2.5,16.2-6.6c3.7-3.3,8.9-11.5,7.9-12.5C284.876,10.625,271.277,11.225,267.678,12.525z"/>
<path fill="#373737" stroke="#000000" stroke-width="0.25" stroke-miterlimit="10" d="M415.778,12.325c0,2.2,5.399,10.2,8.6,12.7
	c4.2,3.3,9,5.1,15.5,5.8c9.4,0.9,10.5-0.4,2.9-3.5c-7.5-3.1-17-8.2-17-9.2c0-0.3,3.899,1.3,8.8,3.7c4.8,2.4,10.3,4.6,12.2,5
	l3.399,0.6l-3.601-4.9c-2-2.7-5.7-6.2-8.3-7.8c-4-2.6-5.9-3-13.601-3.4C417.477,10.925,415.778,11.125,415.778,12.325z"/>
<path fill="#373737" stroke="#000000" stroke-width="0.25" stroke-miterlimit="10" d="M470.876,20.025c-2,6.8-1.398,16.1,1.5,21.8
	c2.5,5.1,8,10.9,12.5,13.3c1.9,1.1,2.102,1,1.602-0.3c-0.301-0.9-0.9-3.3-1.301-5.4c-0.399-2.1-2.399-7.7-4.399-12.6
	c-2.101-4.8-3.4-8.7-3-8.7c1.2,0,8.899,17.4,10.2,22.9c1.5,6.6,2.699,5.3,3.5-3.6c0.8-10-1.4-16.3-8.2-22.8
	c-2.9-2.7-6.5-5.8-8.2-6.7l-3-1.7L470.876,20.025z"/>
<path fill="#373737" stroke="#000000" stroke-width="0.25" stroke-miterlimit="10" d="M222.178,21.425c-10,7.4-14.2,18.3-11.4,29.8
	l1.3,5.4l2.2-7c2.5-8.2,8.4-21.5,9.6-21.5c0.4,0-0.5,2.8-2.1,6.3c-3.5,7.8-6.2,17-5.8,19.8c0.3,1.8,1,1.4,6-3
	c7.6-6.8,10.1-12.3,10.1-21.5c-0.1-7.1-1.5-12.6-3.2-12.6C228.377,17.125,225.377,19.025,222.178,21.425z"/>
<path fill="#373737" stroke="#000000" stroke-width="0.25" stroke-miterlimit="10" d="M193.478,37.825c-11.3,13.6-12.6,27.4-4,42.8
	c1.4,2.5,2.6,4.5,2.7,4.5c0.2,0,0.3-4.6,0.3-10.3c0.1-11,2-25.6,3.6-27.2c0.6-0.7,0.7,0,0.3,2c-1.1,5.2-1.9,26-1.2,30l0.7,3.7
	l2.5-2.3c1.4-1.3,4-5.4,5.9-9.2c4.2-8.3,4.7-16,1.6-24.9c-2-5.8-6.6-13.8-7.9-13.7C197.578,33.225,195.578,35.325,193.478,37.825z"
	/>
<path fill="#373737" stroke="#000000" stroke-width="0.25" stroke-miterlimit="10" d="M499.778,38.325c-7,12.2-7.7,22.9-2.2,34
	c1.7,3.5,4.2,7.4,5.601,8.7l2.5,2.4l0.699-2.8c0.7-3-0.1-28.6-1.1-32.5c-0.5-1.8-0.4-2.1,0.3-1c1.8,2.9,3.5,15.7,3.601,26.8
	c0.101,12.6,0.399,12.7,5.399,2.2c3.4-7.1,4.101-17.7,1.8-24.7c-1.699-5-10.8-18.3-12.6-18.3
	C503.278,33.125,501.477,35.525,499.778,38.325z"/>
<path fill="#373737" stroke="#000000" stroke-width="0.25" stroke-miterlimit="10" d="M250.777,38.025c-5.1,1.7-8.7,4.1-12.9,8.6
	c-2.4,2.6-4,4.9-3.7,5.2c0.7,0.7,14.1-3.4,18.8-5.8c2-1,4.3-1.9,5-1.9c2.3,0.1-6.4,4.3-15.7,7.6l-9,3.2l4.8,0.7
	c6,0.9,12.7,0.1,17.5-2.2c6.2-2.9,14.8-13,12.9-14.9C267.578,37.525,253.277,37.125,250.777,38.025z"/>
<path fill="#373737" stroke="#000000" stroke-width="0.25" stroke-miterlimit="10" d="M435.578,37.825c-3.899,0.6-3.5,2.3,1.8,8.2
	c7.4,8.3,15.5,11.2,26.101,9.6l4.801-0.7l-9-3.2c-9.301-3.4-16-6.5-15.301-7.1c0.2-0.2,4.2,1.1,8.801,3c9.5,3.7,15,5.1,15,3.8
	c0-1.8-8.2-9.3-12.301-11.4C451.278,37.825,441.477,36.725,435.578,37.825z"/>
<path fill="#373737" stroke="#000000" stroke-width="0.25" stroke-miterlimit="10" d="M468.876,45.725
	c13.602,14.4,21.4,25.5,29.301,41.2c26.801,53.6,21,117.5-15.2,165.8c-16.8,22.4-38.8,40.2-65.199,52.801
	c-16.8,7.899-32.8,12.8-53.2,16.1c-3.7,0.6-3.8,0.7-3.8,5.1c0,4.101,0.2,4.4,2.3,4c1.2-0.3,5.8-1,10.2-1.699
	c17.7-2.5,43-11.601,60.3-21.801c10.101-5.899,25.2-17.5,34.3-26.3c25.101-24.3,42.2-55.7,49.101-90.1c3.2-16,3.2-44.4-0.101-59.7
	c-6.3-29.7-19.699-56-39.6-77.8c-4.4-4.8-9.801-10.3-12-12.2C463.078,39.226,464.677,41.225,468.876,45.725z"/>
<path fill="#373737" stroke="#000000" stroke-width="0.25" stroke-miterlimit="10" d="M229.178,48.325c-4.9,5.1-11.1,12.1-13.7,15.5
	c-25.9,33.9-37.6,76.3-32.2,116.9c5.1,38.4,22.3,72.5,50.6,100c22.7,22,47.3,36.301,76.4,44.4c8.3,2.3,29.699,6.1,30.399,5.4
	c0.199-0.2,0.399-2.101,0.399-4.101c0-4.3,0.2-4.2-14.3-6.8c-36.8-6.8-74.5-28-99-55.9c-12.9-14.6-22.5-30.1-29.7-48
	c-16.7-41.6-14.8-87.6,5.3-128.1c7.4-15,15.4-26.5,27.2-39.4c4.6-5,8.2-9.1,7.9-9.1C238.277,39.125,234.078,43.325,229.178,48.325z"
	/>
<path fill="#373737" stroke="#000000" stroke-width="0.25" stroke-miterlimit="10" d="M227.277,62.425c-4.6,2.2-12.5,9.5-12.5,11.6
	c0,1.3,10.4-1.6,17.9-5c3.5-1.6,6.6-2.7,6.9-2.4c0.8,0.8-14.4,7.5-19.9,8.8c-2.7,0.6-4.9,1.5-4.9,1.8c0,1,9.3,1.8,13.8,1.2
	c6-0.8,14-6,18-11.6c1.9-2.6,3.101-5.1,2.7-5.5c-0.3-0.4-4.3-0.8-8.8-1C233.478,60.125,231.478,60.425,227.277,62.425z"/>
<path fill="#373737" stroke="#000000" stroke-width="0.25" stroke-miterlimit="10" d="M454.078,60.825c-2.101,0.4-2.2,0.6-0.899,3.1
	c1.899,3.6,8.3,10,11.8,11.8c4.101,2.1,11.601,3.3,17.101,2.7c4.5-0.6,6.7-2.3,2.8-2.3c-3.6,0-23.898-8.5-22.898-9.6
	c0.199-0.2,3.5,0.9,7.398,2.5c10.801,4.5,17.4,6.3,17.4,4.6c0-2.2-10.5-11-14.7-12.3C468.177,60.225,458.778,59.925,454.078,60.825z
	"/>
<path fill="#373737" stroke="#000000" stroke-width="0.25" stroke-miterlimit="10" d="M169.777,67.325c-1.1,1.8-3,6.4-4.2,10.2
	c-2.5,8.4-2,15.5,1.7,23.1c2.5,5.2,9.9,14.5,11.5,14.5c0.4,0-0.1-2.8-1.1-6.1c-2.8-8.9-5.8-30.9-4.2-30.9c0.5,0,1.4,4.2,2,9.2
	c1.1,9.2,5.7,25.8,7.1,25.8c1.1,0,4.1-7.5,5.3-13.2c0.6-2.8,0.9-7.3,0.6-10c-1-7.9-7.1-18.4-13.9-23.8l-2.8-2.1L169.777,67.325z"/>
<path fill="#373737" stroke="#000000" stroke-width="0.25" stroke-miterlimit="10" d="M523.876,69.625
	c-5.6,5.9-9.699,13.6-10.699,20.1c-0.699,5.1,1.101,14.5,3.899,19.9l2,4l1.899-4.3c1.801-3.9,3.899-12.9,6.7-28.2
	c0.899-4.8,0.899-4.3,0.399,4.3c-0.399,8.5-3.3,23.2-5.8,29.2c-1.7,4.2,8.5-7.1,11.7-12.9c3-5.6,3.3-6.8,3.3-14.6
	c0-7.5-0.4-9.3-3.4-15.8c-1.899-3.9-3.699-7.2-4.1-7.2C529.375,64.125,526.778,66.625,523.876,69.625z"/>
<path fill="#373737" stroke="#000000" stroke-width="0.25" stroke-miterlimit="10" d="M343.078,94.025
	c-9.8,14.6-12.3,19.4-12.3,23.6c0,2.9,3,9.4,6.7,14.3c3.1,4.1,2.699,5.7-1.9,9.5c-4.3,3.4-11.5,4.6-17,2.8
	c-1.899-0.6-5.8-3.3-8.7-5.9c-5.199-4.7-5.3-4.7-3.8-7.6c3-5.6-2-11.8-7.8-9.6c-5.6,2.1-5.8,10.3-0.4,12.4c3,1.1,3.102,1.3,2.7,6.3
	c-0.8,9.3-8.1,17.3-15.899,17.3c-4.4,0-10.301-3.8-15.4-9.9c-3.4-4.2-3.6-4.6-1.9-5.8c1-0.7,2.101-1.3,2.4-1.3c1.6,0,2.9-5.1,2-7.4
	c-1.9-5.1-7.8-6-11.6-1.9l-2.4,2.6l-2.5-2.3c-1.3-1.2-4.2-2.6-6.4-3c-4.399-0.8-5.2-0.2-2.2,1.7c3.5,2.2,14.9,20.5,23.6,38
	c4.7,9.3,8.5,17.5,8.5,18.2c0,0.8,18.8,1.1,72.899,1.1h72.899l9.101-18.3c9.301-18.7,16.899-31.2,22.601-37.2l3.2-3.5h-3.102
	c-1.699,0-4.8,1.1-6.699,2.4l-3.601,2.5l-2.399-2.5c-3-3.2-7.399-2.9-10.199,0.7c-2.5,3.4-1.301,7.8,2.699,9.7
	c3.101,1.5,3,1.7-3.801,9c-4.898,5.2-8.398,7.2-12.6,7.2c-8.2,0-16-8.9-16-18.3c0-3.5,0.399-4.6,1.899-5
	c3.199-0.8,5.601-5.4,4.5-8.5c-2.101-6-10-6.1-12.5-0.1c-0.899,2.4-0.899,3.3,0.601,5.6l1.8,2.7l-4.6,4.2c-2.5,2.2-6.102,4.9-8,5.8
	c-6.801,3.2-15.7,1.5-20.7-3.8c-2.2-2.4-2.3-2.9-1-4.9c6.8-10.7,8-13.3,8-17.4c0-5.4-0.7-6.8-11.5-22.8c-4.7-7-8.5-13.1-8.5-13.6
	C353.778,78.525,351.477,81.325,343.078,94.025z"/>
<path fill="#373737" stroke="#000000" stroke-width="0.25" stroke-miterlimit="10" d="M221.678,84.025c-6.8,2.2-12.6,6.2-16.1,11
	c-2.9,4.1-6.6,13.7-5.6,14.6c1,1,9.6-5.2,17.1-12.4c3.7-3.5,6.9-6.2,7.2-5.9c0.7,0.7-16.4,17-20.3,19.3c-4.8,2.9-3.9,3.5,2.8,1.9
	c14.6-3.4,22.3-11,25.6-25.2l1.2-5.2l-3.1,0.1C228.678,82.225,224.777,83.025,221.678,84.025z"/>
<path fill="#373737" stroke="#000000" stroke-width="0.25" stroke-miterlimit="10" d="M468.778,84.425c0,4.4,4.1,13.8,7.8,17.9
	c4.7,5.2,10.399,8.4,18,10.2c6.899,1.6,7.8,1,3-1.9c-3.899-2.2-21-18.6-20.3-19.3c0.2-0.3,3.7,2.5,7.6,6.3
	c6.5,6.1,15.2,12.5,17,12.5c1.102,0-0.699-5.6-3.699-11.7c-4-8.3-13.301-14.4-24.101-15.9
	C468.876,81.925,468.778,81.925,468.778,84.425z"/>
<path fill="#373737" stroke="#000000" stroke-width="0.25" stroke-miterlimit="10" d="M149.078,102.325c-1.2,3.8-1.8,8.2-1.7,15.3
	c0,8.6,0.4,10.8,2.5,15.5c3.2,6.9,9.9,14.3,17.8,19.8c3.4,2.4,6.1,4.1,6.1,3.9c0-0.3-1.5-3.1-3.3-6.4c-1.8-3.2-4.6-8.7-6.1-12.3
	c-3.3-7.3-8.9-25.1-8.1-25.8c0.2-0.3,0.7,0.4,1.1,1.4c6.4,18.6,18,41.4,19.8,38.6c0.3-0.5,1.1-4.1,1.7-8.1
	c2.3-13.6-1.7-25.5-11.8-35.6c-4.1-4.1-14.2-11.5-15.7-11.5C151.178,97.125,150.078,99.525,149.078,102.325z"/>
<path fill="#373737" stroke="#000000" stroke-width="0.25" stroke-miterlimit="10" d="M544.177,100.925
	c-16.601,10.8-24.399,26.4-21.399,43.3c0.6,3.5,1.3,7,1.6,7.8c1.101,3.4,11.9-16.1,17.5-31.7c1.9-5.1,3.5-8.8,3.7-8.3
	c1.101,3.3-10.7,33.9-15.7,41c-1.199,1.6-2.1,3.2-2.1,3.5c0,1.3,7.899-4.3,13.699-9.7c11.601-10.9,15.5-23.9,11.899-40.6
	c-0.899-4.1-1.899-7.8-2.399-8.3S547.478,98.825,544.177,100.925z"/>
<path fill="#373737" stroke="#000000" stroke-width="0.25" stroke-miterlimit="10" d="M212.178,115.125
	c-7.3,3.8-15.4,11.6-18.5,17.8c-1.8,3.6-2.4,6.8-2.7,13.9c-0.3,5.1-0.1,9.3,0.2,9.3c2,0,12.3-14.5,17.3-24.4c1.9-3.7,3.7-6.5,4-6.2
	c1,0.9-7.4,17.4-13.1,25.7c-3,4.3-5.3,7.9-5,7.9c1.8,0,11.4-5.9,15.1-9.3c8.4-7.7,12.1-17.6,11-29.5c-0.4-3.6-1-6.9-1.5-7.4
	S215.478,113.425,212.178,115.125z"/>
<path fill="#373737" stroke="#000000" stroke-width="0.25" stroke-miterlimit="10" d="M481.977,113.825c-0.3,1-0.699,5.6-0.699,10.3
	c0,7.7,0.3,9.2,3.3,15.2c3.601,7.4,9.7,13.5,17.399,17.4c2.601,1.3,5,2.4,5.2,2.4c0.3,0-2-3.7-5.101-8.3
	c-5.5-8-13.899-24.5-12.899-25.4c0.199-0.3,1.699,1.9,3.101,4.9c3.699,7.2,12.7,20.7,15.899,23.7l2.601,2.4v-8.1
	c0-9.4-2-15.9-6.9-22c-3.399-4.3-11.6-10.3-17.399-12.7C482.977,112.225,482.677,112.225,481.977,113.825z"/>
<path fill="#373737" stroke="#000000" stroke-width="0.25" stroke-miterlimit="10" d="M140.978,154.925c0.3,9.5,0.7,11.5,3.5,17.4
	c3.5,7.4,9.6,14.1,16.5,18.2c6,3.5,16.8,7.699,16.8,6.5c0-0.5-0.4-0.9-0.8-0.9c-2.5,0-19.1-22.2-25.2-33.5c-3.8-7.2-1.7-4.9,7,7.6
	c3.6,5.1,9.6,12.4,13.5,16.3l7,7.1l0.3-4.5c0.8-10.8-4.7-24-13.3-31.8c-5.3-4.9-15-10.2-21.9-12.1l-3.8-1L140.978,154.925z"/>
<path fill="#373737" stroke="#000000" stroke-width="0.25" stroke-miterlimit="10" d="M556.177,145.625
	c-6.301,1.9-16.2,7.5-21.5,12.2c-7.899,7.2-13.5,21-12.7,31.399l0.301,4.301l3.8-3.4c4.7-4.1,14-15.4,20.7-25.1
	c5.699-8.2,6.5-8.2,1.899,0c-5.101,9.1-10.7,16.9-18,25.1l-6.801,7.8l5.101-2c16-6.1,25.5-14.7,29.801-27.2
	c2.1-6.3,3.5-19.2,2.3-22.2C560.376,144.525,559.978,144.425,556.177,145.625z"/>
<path fill="#373737" stroke="#000000" stroke-width="0.25" stroke-miterlimit="10" d="M207.078,157.125
	c-11.8,11.8-15,24.4-10.2,39.7c1.2,4,2.6,7.3,3,7.3c1.8,0,9-21.7,10.4-31.5c1.1-7.2,2.6-9.2,1.9-2.5c-1,9.5-3.5,21.2-6.4,29.2
	c-3.1,9-2.2,9.2,5.3,0.8c11.6-12.9,13.7-27.4,6.5-44.2c-1.1-2.7-2.6-4.8-3.3-4.8C213.578,151.125,210.277,153.825,207.078,157.125z"
	/>
<path fill="#373737" stroke="#000000" stroke-width="0.25" stroke-miterlimit="10" d="M486.078,152.325c-0.5,0.7-2.101,4-3.399,7.3
	c-1.899,4.8-2.399,7.8-2.399,15c0,8,0.3,9.7,3,14.9c2.6,5.199,14,18.399,15,17.399c0.3-0.2-0.601-3.1-2-6.3
	c-2.5-6.3-5.9-22.1-6.8-31.5c-0.7-7.4,0.6-3.9,3.3,9c2.2,10.7,7.6,26,9.1,26c1.7,0,5-13.5,5-20.9c0-6.3-0.398-8.3-3.1-13.8
	c-3-6.1-13.5-18.3-15.8-18.3C487.477,151.125,486.578,151.725,486.078,152.325z"/>
<path fill="#373737" stroke="#000000" stroke-width="0.25" stroke-miterlimit="10" d="M222.678,192.325c-10,13.6-13.2,28.1-8.9,40.8
	c2.7,8.2,10,19.8,11.1,17.7c1.8-3.101,3.1-20.8,2.6-33.7c-0.7-16.4,0.7-14.3,2.3,3.6c0.8,9.2,0.8,15.801,0.1,22.9
	c-0.6,5.4-0.9,10.1-0.7,10.3c0.8,0.8,7.9-11.3,10.2-17.399c5-13.301,2.7-26.9-6.6-40.2c-2.7-3.9-5.4-7.3-5.9-7.7
	C226.277,188.325,224.377,190.025,222.678,192.325z"/>
<path fill="#373737" stroke="#000000" stroke-width="0.25" stroke-miterlimit="10" d="M470.376,194.425
	c-2.5,3.601-5.8,9.101-7.3,12.3c-2.5,5.2-2.8,7.101-2.8,16c0,9.801,0.1,10.2,4.199,18.5c8,15.801,7.801,16,7.801-8.399
	c0.1-11.601,0.5-23,1.1-25.2c0.801-3.1,1,0.1,1,14.5c0,11.7,0.5,20.7,1.301,24.5l1.301,5.9l2.5-2.9c1.3-1.7,4-6.4,6-10.5
	c6.8-13.9,5.5-28.6-3.602-42.7C475.778,187.025,475.677,187.025,470.376,194.425z"/>
<path fill="#373737" stroke="#000000" stroke-width="0.25" stroke-miterlimit="10" d="M276.478,190.925c-2.3,2.5-2.101,6.8,0.3,9.2
	c2,2,3.3,2,74.8,2c80.8,0,77.2,0.3,77.2-6.4c0-7,4.5-6.6-77.2-6.6C281.678,189.125,277.978,189.225,276.478,190.925z"/>
<path fill="#373737" stroke="#000000" stroke-width="0.25" stroke-miterlimit="10" d="M142.178,195.125c2,15.4,11.2,28.2,24.6,34.4
	c5.6,2.6,19.1,6.1,21,5.399c0.6-0.2-2.2-2.6-6.2-5.3c-7.3-5-28.8-25.6-28.8-27.6c0-0.601,4.3,3,9.6,7.899
	c9.1,8.7,24.6,20.2,27.1,20.2c0.9,0,0.8-1.4-0.4-5.3c-5.9-20.101-18.9-30.4-43.2-34.2l-4.4-0.7L142.178,195.125z"/>
<path fill="#373737" stroke="#000000" stroke-width="0.25" stroke-miterlimit="10" d="M555.278,190.725c-1.101,0.2-4.5,0.9-7.5,1.5
	c-8.8,1.7-19,7.101-24.4,12.9c-5,5.3-9.899,14.8-11.199,21.5c-0.601,3.4-0.5,3.7,1.101,3.1c4.5-1.699,16.699-11,25.6-19.399
	c5.5-5.2,9.9-9,9.9-8.5c0,3.2-23.801,25.2-34.601,32c-6.301,3.899,15.3-1.3,23.699-5.8c9.7-5.2,16.2-13.7,20.2-26.4
	C561.278,191.625,560.778,189.625,555.278,190.725z"/>
<path fill="#373737" stroke="#000000" stroke-width="0.25" stroke-miterlimit="10" d="M245.377,229.425c-5.6,13.4-4.5,29.7,2.6,41
	c3,4.7,15.2,16.7,17.1,16.7c2.5,0-3-22.8-9.3-37.9c-4.4-10.699-2.8-10,2.4,1c5.1,11.101,9.199,22.9,10.899,31.601
	c0.601,3.5,1.4,6.3,1.7,6.3c0.4,0,1.4-3.1,2.4-7c2.8-10.5,1.899-23.5-2-31.5c-3.2-6.7-13.7-17.6-20.301-21.3l-4.1-2.2
	L245.377,229.425z"/>
<path fill="#373737" stroke="#000000" stroke-width="0.25" stroke-miterlimit="10" d="M449.078,229.625c-7.8,5.2-15,13.1-18.5,20.2
	c-4.101,8.3-4.899,19.5-2.3,30.2c0.899,3.899,2,7.3,2.399,7.6c0.399,0.2,1.3-2.6,2.101-6.3c1.7-8.7,6-21,11.1-31.8
	c4.602-9.5,6.301-10.801,2.602-1.801c-5,11.801-10.7,31.9-10.7,37.4c0,1.1,0.399,2,1,2c0.5,0,4.399-3.2,8.5-7.1
	c5.399-5.101,8.399-9,10.7-13.801c3.1-6.199,3.3-7.199,3.3-17.6c0-8.1-0.5-12.4-1.8-16.2c-1-2.899-2.2-5.5-2.602-5.7
	C454.477,226.425,451.876,227.725,449.078,229.625z"/>
<path fill="#373737" stroke="#000000" stroke-width="0.25" stroke-miterlimit="10" d="M156.078,235.725c-2,0.9-1.6,2.601,2.7,11.2
	c9.2,18.2,24.3,27.2,46.1,27.2h8l-11.8-6c-11.2-5.7-34.1-21.5-32.9-22.7c0.3-0.3,2.2,0.8,4.3,2.4c8.7,6.7,30.4,18.6,38.1,20.8
	l2.3,0.7l-1.6-3.9c-4-9.6-13.2-20.1-21.1-24.1c-6.6-3.3-14.5-5.2-23.9-5.7C161.377,235.325,156.678,235.425,156.078,235.725z"/>
<path fill="#373737" stroke="#000000" stroke-width="0.25" stroke-miterlimit="10" d="M527.078,236.225
	c-11.5,1.9-21.7,7.601-28.601,16.101c-4.3,5.3-9.899,16.2-8.5,16.7c0.5,0.199,5.5-1.9,11.101-4.601c8.7-4.2,15.3-8.1,30.7-17.899
	c1.399-0.9,0.7,0-1.5,2c-6.601,6-18.3,13.699-30,19.8l-11,5.8h8c21.399,0,36.3-8.9,45.399-27c4.5-9.1,4.801-10.5,2.5-11.4
	C543.078,234.925,533.376,235.125,527.078,236.225z"/>
<path fill="#373737" stroke="#000000" stroke-width="0.25" stroke-miterlimit="10" d="M281.978,247.625
	c-0.601,1.3-1.601,6.1-2.3,10.7c-2.801,20.3,4.699,36.3,23,48.7l6.399,4.399l-0.7-4.399c-1.199-7.5-6.5-22.101-12.6-34.5
	c-3.2-6.5-5.7-12-5.5-12.2c0.1-0.2,2.2,2.8,4.6,6.5c6.101,9.7,13.301,25.1,16.5,35.5c1.7,5.399,3.101,8.3,3.5,7.5
	c0.4-0.7,1.301-5.101,2-9.8c3.101-22.4-6.199-39-29.199-52.2l-4.601-2.601L281.978,247.625z"/>
<path fill="#373737" stroke="#000000" stroke-width="0.25" stroke-miterlimit="10" d="M411.278,249.425
	c-19.8,11.5-29.3,29.601-26.4,50.2c1.7,12.2,2.301,13.1,4.4,6c0.899-3.3,3.2-9.8,5.2-14.5c3.8-9.3,15.1-30,16.5-30
	c0.398,0-0.5,2.4-2.2,5.3c-6.3,11.2-16,37.2-16,42.9c0,1.5,0.8,1.3,5.2-1.4c15.3-9.399,24.8-25.3,24.8-41.3c0-6.2-2.4-19.4-3.7-20.5
	C418.578,245.725,415.177,247.225,411.278,249.425z"/>
<path fill="#373737" stroke="#000000" stroke-width="0.25" stroke-miterlimit="10" d="M199.277,279.825
	c-6.3,0.8-17.5,4.6-17.5,5.899c0,0.7,3.3,4.601,7.3,8.601c11.8,12,23.1,16.5,38.3,15.6c7.7-0.5,20.4-3.399,20.4-4.7
	c0-0.399-3.7-1.199-8.2-1.8c-4.6-0.6-12.1-2.3-16.8-3.7c-11-3.199-26.2-8.699-25.7-9.3c0.3-0.2,5.6,1.2,11.9,3.101
	c15.4,4.699,37.8,8.6,37.8,6.699c0-0.5-3-3.699-6.7-7.1C228.277,282.025,215.078,277.725,199.277,279.825z"/>
<path fill="#373737" stroke="#000000" stroke-width="0.25" stroke-miterlimit="10" d="M484.778,280.125
	c-7.4,1.6-16.7,6.8-23.601,13.2c-3.5,3.3-6.399,6.399-6.399,6.899c0,1.9,22.399-2,37.8-6.699c6.3-1.9,11.601-3.301,11.9-3.101
	c0.699,0.7-21.602,8.5-30.4,10.7c-4.5,1.1-10.899,2.3-14.3,2.7c-3.3,0.3-6,0.899-6,1.3s2.8,1.6,6.3,2.6c4.5,1.4,9.3,1.9,17.7,1.9
	c11.3,0,11.7-0.1,19.5-3.8c6.3-3,9.5-5.4,15.8-11.9c4.3-4.399,7.5-8.399,7-8.8c-0.399-0.5-3.899-1.8-7.7-2.9
	C504.478,279.825,491.278,278.825,484.778,280.125z"/>
<path fill="#373737" stroke="#000000" stroke-width="0.25" stroke-miterlimit="10" d="M243.777,311.225
	c-6.9,1.301-19.8,8.2-26.2,13.9c-3.2,2.8-5.8,5.5-5.8,5.9c0,0.5,3.7,2.5,8.1,4.5c20.9,9.6,38.4,8.5,56.2-3.4
	c7.5-5,13.8-10.9,10.4-9.7c-9.5,3.4-27.8,6.3-44.8,7.2c-13.9,0.6-13.6-0.8,0.3-1.9c15-1.1,41.8-7.199,41.8-9.5c0-1.1-13-5.8-19.4-7
	C257.578,309.925,250.277,309.925,243.777,311.225z"/>
<path fill="#373737" stroke="#000000" stroke-width="0.25" stroke-miterlimit="10" d="M436.778,311.225
	c-5.5,1.101-19,6.101-19,7.101c0,2.399,25.5,8,44.399,9.7c14.199,1.399,13.3,2.5-1.399,1.699c-17.5-1-34.601-3.6-45.5-7.1
	c-3-1,6.6,7.5,12.8,11.3c12,7.3,25.3,9.601,38.601,6.8c7.3-1.5,23.101-8.199,23.101-9.699c0-1.7-11.7-11-18-14.301
	C460.278,310.625,448.977,308.825,436.778,311.225z"/>
<path fill="#373737" stroke="#000000" stroke-width="0.25" stroke-miterlimit="10" d="M179.078,431.125
	c-6.5,3.3-13.1,11.4-20.2,24.6c-8.4,15.602-12.2,21.5-17.2,26.9l-4.1,4.4l-3.7-1.802c-10.1-5.198-20.1-2.8-20.1,4.802
	c0,3.8,4.2,5.398,12.3,4.8c3.9-0.2,7.9-0.8,8.8-1.102c1.2-0.5,1.9,0.102,2.7,2.102c2.3,5.7,2.3,9.7,0.2,17.3
	c-4.4,15.8-5.4,22.2-4.1,26.7c2.4,8.6,8.9,13.5,18,13.5c6.1,0,9.3-1,16-4.9c3.6-2.1,4.1-2.7,3-3.898c-1.2-1.102-2.3-0.9-7.3,1.6
	c-6.5,3.3-12.1,3.8-16.5,1.6c-5.8-3-6.4-9.3-2.5-26.6c2.9-12.9,2.8-19.4-0.6-26l-1.9-3.8l7.7-7.9c6.4-6.398,9.4-10.6,16.3-22.8
	c13-23.1,21-30,30.3-26.1c6.2,2.6,8.1,9.3,5,18.198c-1.6,4.602-0.9,7.4,1.5,6c1.5-1,4.1-10.198,4.1-14.6c0-4.1-3-9.2-7.3-12.4
	C195.277,428.625,184.678,428.325,179.078,431.125z"/>
<path fill="#373737" stroke="#000000" stroke-width="0.25" stroke-miterlimit="10" d="M461.778,430.725
	c-12,3.2-22.601,9.602-33.8,20.602c-19.4,18.898-32.102,45.398-31,64.8c1.1,19.5,14.898,33.7,33.699,34.8
	c16.399,0.9,30.199-4.898,44.101-18.7c4.8-4.698,9.6-10,10.8-11.6l2.101-3l-0.601,5.5c-0.8,8.1,1.3,12.5,7.2,15.1
	c4,1.802,5.3,1.9,9.6,1c6.7-1.5,8.4-2.5,14.9-8.698l5.6-5.302l0.2,3.2c0.4,5.5,2.601,7.7,7.8,7.7c5.801,0,10.9-2.7,16.2-8.4
	c4.8-5.198,10.2-13.3,10.2-15.3c0-3.1-3-0.8-7.5,5.7c-6.2,9.2-11.8,14-16.2,14c-3.1,0-3.3-0.2-3.3-3.6c0-4.5,4.5-15.802,11.6-29.102
	c5.801-10.7,5.7-12.898-0.3-7.1c-2.399,2.3-3.3,2.7-3.3,1.6c0-0.898-1.4-2.8-3.101-4.2c-2.601-2.198-4-2.6-9.399-2.6
	c-12.101,0-24.3,7.1-32.601,19c-2.699,3.8-4.601,5.7-5.199,5.1c-0.602-0.6-2.7,1.5-5.7,5.7c-5.8,8.2-17.2,19.102-24.2,23.2
	c-11.7,6.7-26.899,8.9-37.3,5.3c-14.101-4.8-20.601-21.8-15.9-41.2c4.7-19.398,21.301-44.898,37.5-57.6c22-17.1,43.5-17.7,48-1.2
	c3.5,13-10.398,37.4-25.6,44.7c-6.9,3.4-16.2,3.4-22.4,0.2c-3.1-1.602-4.699-2-5.398-1.3c-1.301,1.3,0.699,3,7.1,6.198
	c3.2,1.602,6.101,2.102,11.8,2.102c10.2,0,17.801-3.7,26.2-12.7c19.4-20.6,18.5-48.9-1.7-54.5
	C476.876,428.725,468.278,429.025,461.778,430.725z M534.677,492.825c3.399,2.898,2.8,6.1-2.801,15.398
	c-10.199,17-19.699,26.102-28.5,27.602c-2.899,0.398-3.899,0.1-6.199-2.2c-2.399-2.4-2.601-3.2-2.101-8.1
	c0.7-6.602,5.2-15.302,11.8-22.7C515.478,493.125,529.078,488.225,534.677,492.825z"/>
<path fill="#373737" stroke="#000000" stroke-width="0.25" stroke-miterlimit="10" d="M602.177,436.525
	c-6.5,4.398-15.101,13.898-21.899,24.1c-12.2,18.4-19.601,38.1-20.2,54c-0.399,9-0.2,10.4,1.899,14.4c3.101,6.1,6.399,8.3,12.2,8.3
	c7.899,0,15.699-5.9,24.5-18.602c3.199-4.6,3.8-6.198,2.899-7.3c-0.601-0.8-1.399-1-1.8-0.6c-0.301,0.398-3.101,4.2-6.2,8.3
	c-5.8,7.7-12.399,13.4-17,14.5c-5.899,1.5-9.8-4.2-9.8-14.5v-6.1l9.699-10.2c18.301-19.3,31.5-37.5,37.301-51.4
	c5.6-13.5,5-18.3-2.301-18.3C608.278,433.125,605.978,434.025,602.177,436.525z M613.278,438.425c1.399,5.5-6.2,20.3-19.5,37.8
	c-6.9,9.2-24.2,29.102-24.7,28.5c-0.899-0.898,6.101-20.1,10.4-28.6c8.398-16.6,21.1-33.4,28.8-38.2
	C612.177,435.625,612.578,435.625,613.278,438.425z"/>
<path fill="#373737" stroke="#000000" stroke-width="0.25" stroke-miterlimit="10" d="M122.277,437.525l-8,3.1h-23
	c-23.8,0-27.7,0.5-35.8,4.6c-12.3,6.302-19.2,19.302-16.7,31.4c1.4,6.5,6.3,12.6,12.2,15c6,2.4,16.9,2.3,23.7-0.4
	c5.8-2.198,13.1-6.8,13.1-8.3c0-1.898-3.2-1.898-5.3,0c-3.8,3.5-9.8,5.5-16.7,5.5c-12.4,0.102-19-6.398-19-18.7
	c0-10,5.8-17.8,16.8-22.898c4.4-2.102,5.9-2.2,24.8-1.9c17.3,0.2,21.1-0.1,27.9-1.8c4.3-1.1,8-2,8.2-2c0.1,0-1.3,2.1-3.3,4.6
	c-6,7.9-14.5,23.2-22.2,39.9c-18.4,39.9-26.8,51.4-43.3,58.9c-16,7.398-36.5,4.698-44.1-5.802c-2.7-3.8-2.9-4.698-2.6-10.698
	c0.5-9.302,3.7-14,12.4-18.102c8.4-3.898,18.6-4.7,30.4-2.398c6.6,1.398,8.5,1.5,9.1,0.5c1.2-2,0.4-2.602-7.3-4.5
	c-10.8-2.802-27.3-2.5-35.2,0.6c-20.4,7.9-24.7,32.3-7.8,43.5c11.9,7.8,34.3,7.2,51.9-1.5c18.4-9.1,31-26.5,47.8-66
	c9.6-22.7,15.7-34.1,21.3-40.2c2.5-2.7,2.5-5.898,0-5.7C130.877,434.325,126.678,435.725,122.277,437.525z"/>
<path fill="#373737" stroke="#000000" stroke-width="0.25" stroke-miterlimit="10" d="M298.477,488.325
	c-4.601,7.898-9.899,16.898-11.7,20c-1.7,3.2-3.4,5.8-3.8,5.8c-0.3,0-0.2-0.3,0.1-0.7c0.4-0.3,0.2-1.2-0.399-1.898
	c-0.9-1.102-2.101,0-5.5,4.698c-9.301,12.602-19,19.4-29,20.5c-7.9,0.802-13-3.3-14.1-11.398l-0.5-4.102l3.8-0.6
	c19.5-3.3,32.7-12.1,34.8-23.3c0.699-4.2-1.4-9.602-4.5-11.3c-8.7-4.602-26.101,4.6-35,18.398c-2.1,3.2-4,6.3-4.2,7
	c-0.3,0.9-0.7,0.9-1.7,0c-1-0.898-2.2,0.102-5.7,4.8c-9.2,12.602-18.9,19.4-28.9,20.5c-7.9,0.802-13-3.3-14.1-11.398l-0.5-4.102
	l3.8-0.6c23.8-4,39.2-17.5,34-30c-4.1-9.7-19.1-6.9-32.2,6c-8.2,8.1-12.5,16.9-12.6,25.6c-0.2,10.302,3.8,15.5,13.6,18
	c12.6,3.102,25.9-3.698,37.9-19.6c3.3-4.4,5.7-6.9,5.2-5.6c-0.4,1.3-0.7,4.898-0.8,8c0,9.5,4.2,14.8,13.7,17.198
	c11.9,3,25.5-3.6,36.2-17.5c6.4-8.198,7.2-8.898,4.2-3.6c-4.899,8.7-19.5,35.6-26.2,48.2l-6.7,12.8l3.3,2c1.8,1.1,3.6,2,4,2
	c0.399,0,6.8-12.1,14.2-26.8c20.699-41.102,33.5-59,47.3-66.102c6.8-3.398,10.3-2.398,10.3,3c0,2.602-0.5,3.5-9.3,16.102
	c-6,8.398-7.7,12.6-7.7,18.5c0.1,6.5,3.399,10.3,9,10.3c5.899,0,15.399-8.3,23-20.1c3.3-5.102,3.8-6.5,2.8-7.7
	c-1.101-1.3-1.399-1.2-2.3,0.3c-2.9,5.1-13.101,17.8-16.3,20.5c-4.5,3.7-7.9,4-8.801,0.6c-0.801-3.3,0.801-7.698,5.699-16.1
	c7-11.8,8.9-16.6,8.9-22.2c0-4.398-0.4-5.5-2.7-7.3c-5.7-4.5-16-0.4-27,10.6l-7.2,7.2l7.4-14.898c4.1-8.2,7.5-15.102,7.5-15.4
	s-0.7-0.5-1.5-0.5S303.177,480.425,298.477,488.325z M208.678,489.025c1.9,1.198,1.7,6.1-0.4,10.1c-4.1,7.9-16.5,16.5-25.6,17.7
	l-4.2,0.6l3.8-7.1c4.5-8.602,12.7-17.5,18.7-20.2C205.877,487.925,206.678,487.825,208.678,489.025z M264.678,489.025
	c1.899,1.198,1.699,6.1-0.4,10.1c-4.1,7.9-16.5,16.5-25.6,17.7l-4.2,0.6l3.8-7.1c4.5-8.602,12.7-17.5,18.7-20.2
	C261.876,487.925,262.678,487.825,264.678,489.025z"/>
<path fill="#373737" stroke="#000000" stroke-width="0.25" stroke-miterlimit="10" d="M645.677,486.025c-2.5,1.5-5.5,4.1-6.7,5.6
	c-1.601,2-2.199,2.3-2.199,1.1c0-0.898-1.101-2.8-2.5-4.1c-4.301-4.4-11.9-3-17.601,3.2c-2.5,2.7-12.899,17.7-12.899,18.6
	c0,0.3,0.699,0.7,1.5,1.102c1,0.3,3.3-2.2,7.6-8.5c7.301-10.602,10.101-13.102,14.301-12.7c2.8,0.3,3.101,0.6,3.399,4.398
	c0.399,4.9-4.601,15.2-15,31.2l-6.7,10.102l2.2,1.6c1.2,0.8,2.5,1.5,2.8,1.5c1.301,0,11.7-14.6,21.601-30.1
	c11.101-17.5,15.2-22.2,19.101-21.7c2.2,0.2,2.8,0.898,3,3.3c0.601,4.6-1.3,9.7-9.899,26.7l-7.801,15.6l2.5,1.602
	c1.301,0.898,2.801,1.5,3.2,1.198c0.399-0.198,4.399-6.698,9-14.3c4.601-7.6,10.7-16.7,13.5-20.3c8.101-10.1,15.7-13,15.7-6.1
	c0,3.898-1.301,6.8-7.301,16.898c-2.8,4.602-5.601,10.4-6.199,13c-1.301,5-0.5,9.9,1.699,11.4c6.899,4.5,16-1.2,26.2-16.602
	c3.699-5.6,4.3-7.198,3.399-8.398c-1.101-1.2-1.5-1.102-2.8,0.898c-4.5,6.9-13.301,17.9-15.5,19.302c-1.5,1-3.4,1.6-4.301,1.398
	c-3.199-0.6-2.399-4.8,2.601-14.7c6.8-13.198,8.8-20.198,7.3-25.198c-2.5-8.302-11.399-8-21,0.698l-3.899,3.4l-0.601-4.4
	C661.978,483.325,654.376,480.425,645.677,486.025z"/>
</svg>
