<?xml version="1.0" encoding="utf-8"?>
<!-- Generator: Adobe Illustrator 17.0.0, SVG Export Plug-In . SVG Version: 6.00 Build 0)  -->
<!DOCTYPE svg PUBLIC "-//W3C//DTD SVG 1.1//EN" "http://www.w3.org/Graphics/SVG/1.1/DTD/svg11.dtd">
<svg version="1.1" id="Шар_1" xmlns="http://www.w3.org/2000/svg" xmlns:xlink="http://www.w3.org/1999/xlink" x="0px" y="0px"
	 width="100px" viewBox="0 0 113.726 40" enable-background="new 0 0 113.726 40" xml:space="preserve">
<path fill="#373737" d="M0,11.88h5.837c3.243,0,6.022,1.204,6.022,5.003c0,3.683-2.872,5.281-6.022,5.281H3.984v4.771H0V11.88z
	 M5.651,19.014c1.575,0,2.316-0.787,2.316-2.131s-0.834-1.853-2.316-1.853H3.984v3.984H5.651z"/>
<path fill="#373737" d="M19.719,26.936l-2.594-5.049h-1.529v5.049h-3.984V11.88h5.698c3.243,0,6.022,1.112,6.022,4.864
	c0,2.154-0.973,3.567-2.432,4.354l3.266,5.837H19.719z M15.596,18.737h1.436c1.575,0,2.409-0.695,2.409-1.992
	s-0.834-1.714-2.409-1.714h-1.436V18.737z"/>
<path fill="#373737" d="M22.926,19.339c0-4.957,2.826-7.736,6.995-7.736c4.169,0,6.995,2.803,6.995,7.736
	c0,4.957-2.826,7.875-6.995,7.875C25.752,27.214,22.926,24.295,22.926,19.339z M32.84,19.339c0-2.733-1.112-4.308-2.918-4.308
	c-1.807,0-2.919,1.575-2.919,4.308s1.112,4.447,2.919,4.447C31.728,23.786,32.84,22.072,32.84,19.339z"/>
<path fill="#373737" d="M37.145,11.88h4.123l2.362,6.254l0.834,2.455h0.093l0.834-2.455l2.27-6.254h4.123v15.055h-3.706v-4.447
	c0-1.529,0.324-3.868,0.51-5.374h-0.093l-1.251,3.521l-2.085,5.073h-1.482l-2.084-5.073l-1.205-3.521h-0.093
	c0.185,1.506,0.51,3.845,0.51,5.374v4.447h-3.659V11.88z"/>
<path fill="#373737" d="M52.054,19.339c0-4.957,2.825-7.736,6.995-7.736s6.995,2.803,6.995,7.736c0,4.957-2.826,7.875-6.995,7.875
	S52.054,24.295,52.054,19.339z M61.967,19.339c0-2.733-1.112-4.308-2.918-4.308c-1.807,0-2.918,1.575-2.918,4.308
	s1.112,4.447,2.918,4.447C60.855,23.786,61.967,22.072,61.967,19.339z"/>
<path fill="#373737" d="M73.193,11.602c2.131,0,3.752,0.927,4.818,1.992l-2.177,2.455c-0.742-0.649-1.39-1.019-2.594-1.019
	c-2.039,0-3.567,1.621-3.567,4.354c0,2.826,1.251,4.401,3.938,4.401c0.417,0,0.88-0.093,1.158-0.278v-2.085h-2.223V18.18h5.744v7.18
	c-1.112,0.927-3.057,1.853-5.189,1.853c-4.122,0-7.504-2.548-7.504-7.69C65.596,14.474,69.07,11.602,73.193,11.602z"/>
<path fill="#373737" d="M78.897,11.88h9.728v3.335h-5.744v2.363h4.91v3.335h-4.91V23.6h5.975v3.336h-9.959V11.88z"/>
<path fill="#373737" d="M96.953,23.739h-4.216l-0.741,3.196h-4.077l4.587-15.055h4.817l4.586,15.055h-4.215L96.953,23.739z M96.235,20.659
	l-0.255-1.042c-0.37-1.436-0.741-3.266-1.112-4.771h-0.092c-0.324,1.529-0.695,3.335-1.066,4.771l-0.254,1.042H96.235z"/>
<path fill="#373737" d="M109.279,26.936l-2.595-5.049h-1.528v5.049h-3.984V11.88h5.698c3.243,0,6.023,1.112,6.023,4.864
	c0,2.154-0.973,3.567-2.433,4.354l3.266,5.837H109.279z M105.156,18.737h1.436c1.575,0,2.409-0.695,2.409-1.992
	s-0.834-1.714-2.409-1.714h-1.436V18.737z"/>
<!-- <polygon opacity="0.4" fill="#DADADA" points="83.144,26.615 108.601,1.158 108.601,38.842 "/>
<polygon opacity="0.4" fill="#DADADA" points="76.945,21.922 95.872,25.697 79.069,36.911 "/>
<polygon opacity="0.4" fill="#DADADA" points="85.88,7.165 87.916,18.026 78.371,11.495 "/> -->
</svg>
