<?xml version="1.0" encoding="utf-8"?>
<!-- Generator: Adobe Illustrator 17.1.0, SVG Export Plug-In . SVG Version: 6.00 Build 0)  -->
<!DOCTYPE svg PUBLIC "-//W3C//DTD SVG 1.1//EN" "http://www.w3.org/Graphics/SVG/1.1/DTD/svg11.dtd">
<svg version="1.1" xmlns="http://www.w3.org/2000/svg" xmlns:xlink="http://www.w3.org/1999/xlink" x="0px" y="0px" width="100px"
	 viewBox="0 0 180 18" enable-background="new 0 0 180 18" xml:space="preserve">
<g id="Impala_1_" enable-background="new    ">
	<g id="Impala">
		<g>
			<path fill-rule="evenodd" clip-rule="evenodd" fill="#FFFFFF" d="M58.7,16.7h2.9V0.9h-2.9V16.7z M82.1,12.3L77.4,0.9h-3.4v15.7
				h2.6V8.9l-0.1-4.6l0.4,1.2l3.9,10h2.5l4-10l0.4-1.2l-0.1,4.5v7.8h2.7V0.9h-3.4L82.1,12.3z M110.8,1.4c-0.9-0.3-1.9-0.5-3.2-0.5
				h-5.2v15.8h2.9v-6.1c0.6,0.1,1.4,0.1,2.4,0.1c1.1,0,2.1-0.1,2.9-0.4s1.4-0.6,1.9-1.1c0.4-0.5,0.8-1,1-1.6c0.2-0.6,0.3-1.3,0.3-2
				c0-1.1-0.3-2-0.8-2.7C112.4,2.2,111.7,1.7,110.8,1.4z M110.8,6.5c0,0.2-0.1,0.5-0.3,0.8c-0.1,0.3-0.3,0.5-0.6,0.7
				c-0.2,0.2-0.6,0.3-1,0.4c-0.4,0.1-1,0.2-1.6,0.2c-1.3,0-2,0-2.1,0V3.1h2.4c1,0,1.8,0.2,2.4,0.7s0.8,1.1,0.8,2
				C110.9,6,110.9,6.3,110.8,6.5z M127.6,0.9l-5.8,15.7h3l1.6-4.4h5.5l1.6,4.4h3l-5.7-15.7H127.6z M127.1,10.1l2.1-6.4
				c0,0.1,0.7,2.3,2,6.4H127.1z M149.7,0.9h-2.9v15.7h9.4l0.1-2.3h-6.6V0.9z M174.4,0.9h-3.2l-5.8,15.7h3l1.6-4.4h5.5l1.6,4.4h3
				L174.4,0.9z M170.7,10.1l2.1-6.4c0,0.1,0.7,2.3,2,6.4H170.7z"/>
		</g>
	</g>
</g>
<g id="_x33__1_" opacity="0.2" enable-background="new    ">
	<g id="_x33_">
		<g>
			<ellipse fill-rule="evenodd" clip-rule="evenodd" fill="#FFFFFF" cx="31" cy="8.6" rx="8.3" ry="8.7"/>
		</g>
	</g>
</g>
<g id="_x32__1_" opacity="0.502" enable-background="new    ">
	<g id="_x32_">
		<g>
			<ellipse fill-rule="evenodd" clip-rule="evenodd" fill="#FFFFFF" cx="19.6" cy="8.6" rx="8.3" ry="8.7"/>
		</g>
	</g>
</g>
<g id="_x31__1_" opacity="0.8314" enable-background="new    ">
	<g id="_x31_">
		<g>
			<ellipse fill-rule="evenodd" clip-rule="evenodd" fill="#FFFFFF" cx="8.6" cy="8.6" rx="8.3" ry="8.7"/>
		</g>
	</g>
</g>
</svg>
