<?xml version="1.0" encoding="utf-8"?>
<!-- Generator: Adobe Illustrator 16.0.4, SVG Export Plug-In . SVG Version: 6.00 Build 0)  -->
<!DOCTYPE svg PUBLIC "-//W3C//DTD SVG 1.1//EN" "http://www.w3.org/Graphics/SVG/1.1/DTD/svg11.dtd">
<svg version="1.1" id="Layer_1" xmlns="http://www.w3.org/2000/svg" xmlns:xlink="http://www.w3.org/1999/xlink" x="0px" y="0px"
	 width="100px" viewBox="0 0 91.902 25.234" enable-background="new 0 0 91.902 25.234" xml:space="preserve">
<path fill="#FFFFFF" d="M9.231,24.388c-0.563,0.563-1.241,0.846-2.034,0.846H0.033V10.136h2.521v12.578h4.646
	c0.239,0,0.359-0.109,0.359-0.324V2.949c0-0.237-0.12-0.358-0.359-0.358H2.553v7.547L0.033,2.589V0.07h7.164
	c0.794,0,1.471,0.289,2.034,0.861c0.565,0.576,0.847,1.26,0.847,2.051v19.41C10.078,23.161,9.797,23.827,9.231,24.388L9.231,24.388z
	"/>
<polygon fill="#FFFFFF" points="16.017,25.233 16.017,0.034 18.538,0.034 18.538,25.233 "/>
<polygon fill="#FFFFFF" points="26.998,2.554 26.998,10.114 24.477,2.554 24.477,0.034 33.549,0.034 33.549,2.554 "/>
<polygon fill="#FFFFFF" points="32.253,12.635 26.998,12.635 26.998,25.233 24.477,25.233 24.477,10.114 26.998,10.114
	32.253,10.114 "/>
<polygon fill="#FFFFFF" points="40.209,25.233 37.688,25.233 42.134,0.034 44.653,0.034 "/>
<polygon fill="#FFFFFF" points="57.307,25.233 57.238,25.233 52.268,8.601 52.268,25.233 49.749,25.233 49.749,0.034 52.268,0.034
	52.268,0.069 57.307,16.7 57.307,0.034 59.83,0.034 59.83,25.233 "/>
<path fill="#FFFFFF" d="M74.968,24.388c-0.564,0.563-1.244,0.846-2.035,0.846h-7.164V10.136h2.521v12.578h4.645
	c0.24,0,0.359-0.109,0.359-0.324V2.949c0-0.237-0.119-0.358-0.359-0.358h-4.645v7.547l-2.521-7.549V0.07h7.164
	c0.791,0,1.472,0.289,2.035,0.861c0.562,0.576,0.846,1.26,0.846,2.051v19.41C75.813,23.161,75.531,23.827,74.968,24.388
	L74.968,24.388z"/>
<path fill="#FFFFFF" d="M91.184,0.97C90.727,0.443,90.153,0.118,89.458,0h-5.295c-0.695,0.118-1.271,0.442-1.728,0.971
	c-0.457,0.529-0.684,1.152-0.684,1.875v19.541c0,0.721,0.227,1.346,0.684,1.875s1.031,0.854,1.728,0.973h5.295
	c0.694-0.119,1.27-0.442,1.727-0.973c0.455-0.529,0.685-1.154,0.685-1.875V2.845C91.869,2.123,91.639,1.5,91.184,0.97z
	 M89.348,22.354c0,0.238-0.108,0.359-0.324,0.359h-4.391c-0.24,0-0.361-0.121-0.361-0.359V2.876c0-0.238,0.121-0.357,0.361-0.357
	h4.391c0.216,0,0.324,0.119,0.324,0.357V22.354z"/>
</svg>
