<?xml version="1.0" encoding="utf-8"?>
<!-- Generator: Adobe Illustrator 15.0.0, SVG Export Plug-In . SVG Version: 6.00 Build 0)  -->
<!DOCTYPE svg PUBLIC "-//W3C//DTD SVG 1.1//EN" "http://www.w3.org/Graphics/SVG/1.1/DTD/svg11.dtd">
<svg version="1.1" id="Шар_1" xmlns="http://www.w3.org/2000/svg" xmlns:xlink="http://www.w3.org/1999/xlink" x="0px" y="0px"
	 width="100px" viewBox="0 0 190.521 107.583" enable-background="new 0 0 190.521 107.583"
	 xml:space="preserve">
<path fill="#FFFFFF" d="M65.398,56.237c1.329-15.485,14.349-27.685,30.174-27.685s28.847,12.199,30.174,27.685h18.179
	c-1.359-25.493-22.527-45.814-48.353-45.814s-46.99,20.321-48.351,45.814H65.398z"/>
<g>
	<path fill="#FFFFFF" d="M8.772,65.67c1.604,0,2.913,1.308,2.913,2.912c0,1.606-1.309,2.914-2.913,2.914
		c-1.606,0-2.914-1.308-2.914-2.914C5.858,66.978,7.166,65.67,8.772,65.67z M6.344,73.439H11.2v18.677H6.344V73.439z"/>
	<path fill="#FFFFFF" d="M16.02,67.836h4.854v5.604h7.099v4.596h-7.099v7.357c0,1.867,0.935,2.503,2.354,2.503
		c1.941,0,3.885-0.71,5.043-1.53l1.457,4.258c-1.756,1.194-3.96,1.867-6.5,1.867c-4.146,0-7.209-1.867-7.209-7.135V67.836z"/>
	<path fill="#FFFFFF" d="M48.408,84.571H36.753v0.188c0,1.718,1.682,3.138,4.259,3.138c2.354,0,4.669-0.747,5.977-1.53l1.457,4.258
		c-2.017,1.194-4.632,1.867-7.434,1.867c-5.604,0-9.265-2.839-9.265-9.488v-0.447c0-6.873,3.362-9.713,8.33-9.713
		s8.33,2.84,8.33,9.713L48.408,84.571L48.408,84.571z M36.753,80.985h6.648v-0.188c0-2.166-1.419-3.361-3.324-3.361
		s-3.324,1.195-3.324,3.361V80.985z"/>
	<path fill="#FFFFFF" d="M52.146,74.56c1.867-1.083,5.08-1.718,7.956-1.718c1.904,0,3.586,0.561,4.931,1.644
		c1.569-1.083,3.997-1.644,6.126-1.644c4.557,0,7.919,3.063,7.919,9.712v9.562H74.26V82.18c0-3.586-1.345-4.744-3.474-4.744
		c-1.494,0-2.728,0.188-3.438,0.561c0.41,1.271,0.673,2.801,0.673,4.558v9.562h-4.818V82.18c0-3.586-1.345-4.744-3.474-4.744
		c-1.233,0-2.167,0.188-2.729,0.41v14.27h-4.854V74.56z"/>
	<path fill="#FFFFFF" d="M83.079,65.969h4.855v7.32c0.821-0.336,1.83-0.447,2.727-0.447c5.192,0,9.077,3.063,9.077,9.712v0.448
		c0,6.424-3.66,9.711-9.077,9.711c-1.344,0-5.08-0.225-7.582-1.719V65.969z M94.844,82.554c0-4.296-1.904-5.117-4.558-5.117
		c-1.083,0-1.941,0.224-2.354,0.485v9.711c0.598,0.3,1.383,0.486,2.54,0.486c2.765,0,4.369-0.935,4.369-5.117v-0.448H94.844z"/>
	<path fill="#FFFFFF" d="M103.102,74.56c2.092-1.231,5.229-1.718,7.583-1.718c1.83,0,3.437,0.336,4.817,0.934l-1.83,4.445
		c-0.82-0.485-1.756-0.784-2.987-0.784c-1.309,0-2.093,0.187-2.728,0.41v14.271h-4.855V74.56z"/>
	<path fill="#FFFFFF" d="M120.325,65.67c1.605,0,2.913,1.308,2.913,2.912c0,1.606-1.308,2.914-2.913,2.914
		c-1.606,0-2.914-1.308-2.914-2.914C117.411,66.978,118.718,65.67,120.325,65.67z M117.897,73.439h4.854v18.677h-4.854V73.439z"/>
	<path fill="#FFFFFF" d="M143.559,90.995c-2.503,1.494-6.238,1.719-7.583,1.719c-5.416,0-9.077-3.287-9.077-9.711v-0.448
		c0-6.647,3.885-9.712,9.077-9.712c0.896,0,1.904,0.111,2.727,0.447v-7.32h4.856V90.995L143.559,90.995z M131.792,83.002
		c0,4.184,1.606,5.117,4.37,5.117c1.158,0,1.942-0.188,2.54-0.486v-9.711c-0.411-0.262-1.27-0.485-2.353-0.485
		c-2.652,0-4.559,0.821-4.559,5.117L131.792,83.002L131.792,83.002z"/>
	<path fill="#FFFFFF" d="M164.255,93.237c0,5.379-3.66,8.217-8.666,8.217c-2.987,0-5.527-0.635-7.619-1.83l1.456-4.258
		c1.568,0.934,3.772,1.494,6.163,1.494c2.241,0,3.811-1.121,3.811-3.623v-1.121c-0.821,0.373-1.756,0.598-3.101,0.598
		c-5.006,0-8.703-3.287-8.703-9.936v-0.225c0-6.648,4.146-9.713,8.814-9.713c2.988,0,5.753,0.523,7.845,1.719V93.237z
		 M152.489,82.778c0,4.407,1.793,5.342,4.557,5.342c1.121,0,1.756-0.262,2.354-0.599V77.92c-0.599-0.336-1.457-0.484-2.354-0.484
		c-2.764,0-4.557,0.934-4.557,5.117V82.778z"/>
	<path fill="#FFFFFF" d="M184.953,84.571h-11.654v0.188c0,1.718,1.682,3.138,4.259,3.138c2.354,0,4.669-0.747,5.977-1.53
		l1.457,4.258c-2.017,1.194-4.632,1.867-7.434,1.867c-5.604,0-9.265-2.839-9.265-9.488v-0.447c0-6.873,3.362-9.713,8.33-9.713
		s8.33,2.84,8.33,9.713V84.571z M173.298,80.985h6.648v-0.188c0-2.166-1.419-3.361-3.324-3.361s-3.324,1.195-3.324,3.361V80.985
		L173.298,80.985z"/>
</g>
</svg>
