<?xml version="1.0" encoding="utf-8"?>
<!-- Generator: Adobe Illustrator 16.0.1, SVG Export Plug-In . SVG Version: 6.00 Build 0)  -->
<!DOCTYPE svg PUBLIC "-//W3C//DTD SVG 1.1//EN" "http://www.w3.org/Graphics/SVG/1.1/DTD/svg11.dtd">
<svg version="1.1" id="icon_down_1_" xmlns="http://www.w3.org/2000/svg" xmlns:xlink="http://www.w3.org/1999/xlink" x="0px"
	 y="0px" width="44px" height="44px" viewBox="0 0 44 44" enable-background="new 0 0 44 44" xml:space="preserve" fill="#ffffff">
<g id="icon_down">
	<g>
		<path fill-rule="evenodd" clip-rule="evenodd" d="M21.998-0.003c-12.133,0-22.005,9.871-22.005,22.005
			c0,12.133,9.873,22.005,22.005,22.005c12.134,0,22.005-9.872,22.005-22.005C44.003,9.868,34.132-0.003,21.998-0.003z
			 M21.998,42.515c-11.31,0-20.513-9.202-20.513-20.513S10.688,1.489,21.998,1.489c11.311,0,20.513,9.202,20.513,20.513
			S33.309,42.515,21.998,42.515z M29.082,18.711l-6.768,6.762l-6.768-6.762c-0.292-0.291-0.766-0.291-1.056,0
			c-0.146,0.146-0.219,0.337-0.219,0.528c0,0.19,0.073,0.382,0.22,0.528l7.295,7.286c0.291,0.293,0.765,0.293,1.057,0l7.295-7.286
			c0.291-0.292,0.291-0.765,0-1.057C29.848,18.421,29.374,18.421,29.082,18.711z"/>
	</g>
</g>
</svg>
